<svg xmlns="http://www.w3.org/2000/svg" viewBox="0 0 128 128">
  <defs>
    <style>
      .cls-1 {
        fill: #021d40;
      }

      .cls-2 {
        fill: #939;
      }

      .cls-2, .cls-3, .cls-4, .cls-5, .cls-6, .cls-7, .cls-8 {
        stroke: #021d40;
        stroke-linecap: round;
        stroke-linejoin: round;
        stroke-width: 0.5px;
      }

      .cls-3 {
        fill: #39f;
      }

      .cls-4 {
        fill: #f93;
      }

      .cls-5 {
        fill: #fff;
      }

      .cls-6 {
        fill: #396;
      }

      .cls-7 {
        fill: #c33;
      }

      .cls-8 {
        fill: #fc3;
      }
    </style>
  </defs>
  <g id="Capa_2" data-name="Capa 2">
    <g id="Capa_1-2" data-name="Capa 1">
      <g>
        <circle class="cls-1" cx="64" cy="64" r="64"/>
        <path class="cls-2" d="M112.2993,94.4488v0a2.1691,2.1691,0,0,0-1.0387-1.402l-3.7134-2.1438a.542.542,0,0,0-.7691.2555l-.2011.4679a6.3375,6.3375,0,0,1-2.5743,2.9465,7.2647,7.2647,0,0,1-3.7965,1.0584,7.624,7.624,0,0,1-3.8008-1.0176l-.062-.0359a7.4322,7.4322,0,0,1-3.7621-6.5988,6.3358,6.3358,0,0,1,1.2646-3.7029l.3049-.4081a.5421.5421,0,0,0-.1633-.7939l-4.401-2.541a2.2128,2.2128,0,0,0-1.104-.2961,2.1773,2.1773,0,0,0-1.754.8715,28.5721,28.5721,0,0,1-19.284,11.13,2.1845,2.1845,0,0,0-1.9193,2.1691v8.8594l-.0423.0713a1.1568,1.1568,0,0,1-.8814.5818,1.0765,1.0765,0,0,1-.6363-.1428,6.9467,6.9467,0,0,0-3.3557-1.1848,3.7284,3.7284,0,0,0-1.8185.4788,4.8457,4.8457,0,0,0-2.4482,4.23v.0691a4.8451,4.8451,0,0,0,2.4481,4.2285,3.7284,3.7284,0,0,0,1.8186.4791,6.9467,6.9467,0,0,0,3.3559-1.185,1.0785,1.0785,0,0,1,.6356-.1427,1.1564,1.1564,0,0,1,.8818.5816l.0424.0715v8.0435a2.187,2.187,0,0,0,2.1812,2.1878c.0486,0,.0977-.0017.1451-.0049a57.8181,57.8181,0,0,0,44.1357-25.4768A2.153,2.153,0,0,0,112.2993,94.4488Z"/>
        <path class="cls-3" d="M120.2193,50.7021a57.4578,57.4578,0,0,0-4.3813-12.201,2.1575,2.1575,0,0,0-1.949-1.208,2.18,2.18,0,0,0-1.0886.2926l-3.7187,2.1469a.5518.5518,0,0,0-.1662.808l.2983.3994a6.3362,6.3362,0,0,1,1.2647,3.7027,7.4357,7.4357,0,0,1-3.7649,6.6006l-.0608.0349a7.6175,7.6175,0,0,1-3.7993,1.017,7.2638,7.2638,0,0,1-3.7964-1.0584A6.337,6.337,0,0,1,96.4828,48.29l-.2085-.4856a.5252.5252,0,0,0-.7452-.2475L91.23,50.0391a2.3545,2.3545,0,0,0-.9955,2.945,28.5176,28.5176,0,0,1-.06,22.1733,2.1687,2.1687,0,0,0,.92,2.7239l7.6739,4.4305a1.2859,1.2859,0,0,1-.4825,1.6923c-1.5781.9322-2.999,1.943-3.0529,4.0424a4.8451,4.8451,0,0,0,2.4382,4.2347l.0605.035a4.9626,4.9626,0,0,0,2.4746.6623,4.6138,4.6138,0,0,0,2.4116-.6682c1.7912-1.0962,1.9561-2.8322,1.9745-4.6653a1.286,1.286,0,0,1,1.2244-1.2638l6.9838,4.0321a2.1816,2.1816,0,0,0,1.0886.2923,2.1573,2.1573,0,0,0,1.949-1.208,57.9923,57.9923,0,0,0,4.3812-38.7955Z"/>
        <path class="cls-4" d="M35.5521,63.9994a28.2624,28.2624,0,0,1,2.21-11.0082,2.364,2.364,0,0,0-.9994-2.9561L29.39,45.7783a.5209.5209,0,0,1-.2392-.2845,1.2873,1.2873,0,0,1,.5636-1.499c1.5781-.9323,2.9991-1.943,3.0529-4.0425a4.8451,4.8451,0,0,0-2.4387-4.2349l-.06-.0347a4.9617,4.9617,0,0,0-2.4746-.6624,4.6138,4.6138,0,0,0-2.4116.6682c-1.7913,1.0964-1.9561,2.8324-1.9745,4.6654a1.2872,1.2872,0,0,1-.983,1.23.5459.5459,0,0,1-.4008-.0581l-6.8158-3.9349a2.19,2.19,0,0,0-1.0934-.2939,2.1655,2.1655,0,0,0-1.957,1.213,57.7609,57.7609,0,0,0,0,50.9794,2.1658,2.1658,0,0,0,1.957,1.213,2.1893,2.1893,0,0,0,1.0932-.2937l3.7189-2.1471a.5429.5429,0,0,0,.1635-.7951l-.3041-.4074a6.3381,6.3381,0,0,1-1.2647-3.7027,7.4358,7.4358,0,0,1,3.766-6.6012l.06-.0348a7.6211,7.6211,0,0,1,3.7987-1.0164,7.26,7.26,0,0,1,3.7962,1.0584,6.3352,6.3352,0,0,1,2.5745,2.9466l.2006.4671a.543.543,0,0,0,.77.2559l4.2746-2.4681a2.3636,2.3636,0,0,0,.9994-2.9561A28.2629,28.2629,0,0,1,35.5521,63.9994Z"/>
        <path class="cls-5" d="M84.9742,43.5655a4.7664,4.7664,0,0,0,.8231-1.3381,11.4779,11.4779,0,0,0,.5857-1.781c.1524-.6267.2862-1.2487.3969-1.8467.1084-.5886.1871-1.1319.2338-1.6131.0465-.479.07-.8176.07-1.0067a3.9878,3.9878,0,0,0-.211-1.4531c-.1414-.3467-.4834-.5223-1.0164-.5223H57.5178a4.41,4.41,0,0,0-4.5022,3.898L42.0826,92.7536c-.0048.0238-.01.0475-.0162.0709a1.0634,1.0634,0,0,0,.1012.8634,1.6612,1.6612,0,0,0,.8922.6146,8.6787,8.6787,0,0,0,1.8055.3765,25.01,25.01,0,0,0,2.9722.1405,26.3957,26.3957,0,0,0,2.9933-.14,11.4874,11.4874,0,0,0,1.9886-.3743,2.6918,2.6918,0,0,0,1.1513-.61,1.6542,1.6542,0,0,0,.4716-.89l4.2559-21.413a1.4535,1.4535,0,0,1,1.4256-1.17H77.392a1.4161,1.4161,0,0,0,1.0844-.5181,4.9429,4.9429,0,0,0,.8188-1.286,11.2612,11.2612,0,0,0,.6111-1.7376c.171-.642.3129-1.2566.4208-1.824.1068-.5652.1934-1.1011.2569-1.59a9.1989,9.1989,0,0,0,.093-1.0514,2.8822,2.8822,0,0,0-.28-1.358.9955.9955,0,0,0-.9476-.5248H62.6273a1.4535,1.4535,0,0,1-1.4249-1.74l2.6839-13.3431a1.4533,1.4533,0,0,1,1.4249-1.1667H83.8919A1.4126,1.4126,0,0,0,84.9742,43.5655Z"/>
        <path class="cls-6" d="M111.9857,31.8437A58.0506,58.0506,0,0,0,93.27,14.1975,57.4146,57.4146,0,0,0,68.0692,6.3838c-.0563-.004-.1134-.0059-.1693-.0059a2.3738,2.3738,0,0,0-2.3747,2.3675v4.0615a.5675.5675,0,0,0,.6341.5635l.4775-.0566a6.3337,6.3337,0,0,1,3.839.7556A7.4343,7.4343,0,0,1,74.31,20.6288V20.7a7.4325,7.4325,0,0,1-3.8338,6.5578,6.3329,6.3329,0,0,1-3.8391.7558l-.4878-.0578a.5582.5582,0,0,0-.6238.5544v2.5759H85.8564a3.8328,3.8328,0,0,1,3.7183,2.337,6.7084,6.7084,0,0,1,.4276,2.5568c0,.2944-.0258.6919-.0837,1.2892-.0548.5639-.1451,1.19-.2693,1.8646-.1207.6506-.2657,1.3251-.4322,2.01a14.377,14.377,0,0,1-.7381,2.2359,7.6472,7.6472,0,0,1-1.3414,2.1454,4.667,4.667,0,0,1-.8912.7592c.13.1625.2643.3206.3906.4862a2.3695,2.3695,0,0,0,3.0734.6246l7.5327-4.349a1.2864,1.2864,0,0,1,1.2243,1.2639c.0185,1.8328.1833,3.5689,1.9745,4.6652a4.6127,4.6127,0,0,0,2.4116.6681,4.9623,4.9623,0,0,0,2.4746-.6623l.0612-.0352a4.8451,4.8451,0,0,0,2.4376-4.2342c-.0539-2.0994-1.4749-3.11-3.053-4.0427a1.2862,1.2862,0,0,1-.4824-1.6922l6.9664-4.0221a2.1872,2.1872,0,0,0,.7278-3.11Z"/>
        <path class="cls-7" d="M60.5643,92.24a27.92,27.92,0,0,1-2.9314-.5157l-.3241,1.6306A4.6,4.6,0,0,1,56.04,95.7535a5.4781,5.4781,0,0,1-2.3677,1.3425,14.2065,14.2065,0,0,1-2.5039.4824,29.28,29.28,0,0,1-3.33.1595,27.8479,27.8479,0,0,1-3.324-.1616,11.3125,11.3125,0,0,1-2.4364-.5259h0a4.471,4.471,0,0,1-2.3854-1.8173,3.9906,3.9906,0,0,1-.4653-3.0813l2.17-10.8866c-.0438-.0573-.091-.1117-.1345-.1694a2.175,2.175,0,0,0-2.8258-.576L30.919,84.86a.5519.5519,0,0,1-.4063.0589,1.2875,1.2875,0,0,1-.98-1.2291c-.0185-1.8329-.1833-3.5688-1.9746-4.6653a4.6123,4.6123,0,0,0-2.4114-.6682,4.9636,4.9636,0,0,0-2.4749.6625l-.061.0352a4.8444,4.8444,0,0,0-2.4375,4.2342c.0538,2.1,1.4748,3.11,3.0529,4.0426a1.2873,1.2873,0,0,1,.5643,1.4963.5263.5263,0,0,1-.2425.2886l-6.6528,3.8409a2.3517,2.3517,0,0,0-.7792,3.3495,58.0462,58.0462,0,0,0,18.7859,17.596,57.4212,57.4212,0,0,0,25.2594,7.7287c.0476.0031.0951.0047.142.0047a2.1773,2.1773,0,0,0,2.1717-2.1779v-4.2847a.55.55,0,0,0-.6152-.5465l-.4966.0588a6.3326,6.3326,0,0,1-3.839-.7558A7.434,7.434,0,0,1,53.69,107.37v-.071a7.4322,7.4322,0,0,1,3.8338-6.5579,6.3334,6.3334,0,0,1,3.8391-.7557l.4966.0587a.55.55,0,0,0,.6151-.5465V94.3989A2.1741,2.1741,0,0,0,60.5643,92.24Z"/>
        <path class="cls-8" d="M41.2719,46.89a28.5613,28.5613,0,0,1,8.47-7.4937l.4129-2.0717.0031-.0151a7.4567,7.4567,0,0,1,2.8387-4.7571,7.5758,7.5758,0,0,1,4.5209-1.4664h4.9572V24.7317l.0422-.0712a1.1564,1.1564,0,0,1,.8812-.5817,1.0623,1.0623,0,0,1,.6365.1426,6.9467,6.9467,0,0,0,3.3558,1.1848,3.7294,3.7294,0,0,0,1.8184-.4788,4.846,4.846,0,0,0,2.4482-4.23v-.0691A4.8449,4.8449,0,0,0,69.2091,16.4a3.7272,3.7272,0,0,0-1.8185-.4791,6.9458,6.9458,0,0,0-3.3559,1.1849,1.0733,1.0733,0,0,1-.6357.1428,1.1563,1.1563,0,0,1-.8817-.5816l-.0424-.0716V8.5614a2.1961,2.1961,0,0,0-2.19-2.1967c-.0487,0-.0978.0017-.1461.005A57.8182,57.8182,0,0,0,16.018,31.838a2.1931,2.1931,0,0,0,.7295,3.119l3.8472,2.2213a.3965.3965,0,0,0,.5625-.1868l.2658-.6184a6.34,6.34,0,0,1,2.5744-2.9469,7.2641,7.2641,0,0,1,3.7964-1.0584,7.6225,7.6225,0,0,1,3.8014,1.0182l.0613.0353A7.4318,7.4318,0,0,1,35.4186,40.02a6.3387,6.3387,0,0,1-1.2648,3.703l-.3906.5233a.4145.4145,0,0,0,.1249.6068l4.4688,2.58a2.3361,2.3361,0,0,0,1.1843.3312A2.18,2.18,0,0,0,41.2719,46.89Z"/>
      </g>
    </g>
  </g>
</svg>
