<?xml version="1.0" encoding="UTF-8"?><svg xmlns="http://www.w3.org/2000/svg" xmlns:xlink="http://www.w3.org/1999/xlink" viewBox="0 0 1024 1024"><defs><style>.e{fill:#333;}.f{clip-path:url(#d);}.g{fill:#1a1a1a;}</style><clipPath id="d"><rect class="e" x=".44" y="0" width="1023.12" height="1024"/></clipPath></defs><g id="a"/><g id="b"><g id="c"><g><rect class="e" x=".44" y="0" width="1023.12" height="1024"/><g class="f"><g><path class="g" d="M846.32,602.69c-16.71,11.55-24.32,41.92-24.32,65.25,0,7.18,.65,13.85,1.94,19.81,4.73,21.95,8.98,40.66,12.73,57.18,10.04,44.23,16.11,70.92,16.11,93.12,0,18.47-4.13,34.31-14.71,56.48-11.06,23.15-21.58,40.13-30.04,53.78-13.26,21.4-22.02,35.54-22.02,54.89,0,6.33,.98,13.15,2.97,20.8h1.63c-2.02-7.67-3.01-14.49-3.01-20.8,0-18.9,8.66-32.88,21.78-54.06,8.48-13.68,19.02-30.71,30.12-53.93,10.7-22.4,14.87-38.43,14.87-57.16,0-22.37-6.08-49.13-16.14-93.47-3.75-16.51-8-35.22-12.73-57.16-1.26-5.86-1.9-12.41-1.9-19.48,0-22.93,7.39-52.71,23.63-63.94,7.16-4.95,15.3-5.76,24.19-2.4,17.75,6.7,33.42,37.99,47.25,65.6,8.36,16.69,16.26,32.45,23.58,40.56,21.42,23.69,50.45,18.01,81.75,8.39v-1.67c-30.97,9.54-59.68,15.3-80.56-7.79-7.18-7.94-15.03-23.61-23.34-40.2-13.96-27.87-29.79-59.46-48.12-66.38-9.41-3.55-18.04-2.68-25.66,2.58h0Z"/><path class="g" d="M664.16,1016.77c-70.2-3.23-121.38-47.98-162.5-83.93l-2.92-2.55c-4.39-4.17-16.14-13.79-30.33-13.04-8.64,.46-16.45,4.74-23.23,12.71-4.06,4.78-7.86,9.2-11.47,13.41-15.97,18.6-28.58,33.29-44.4,56.09-5.78,8.33-11.25,16.53-16.39,24.54h.81c5.07-7.88,10.45-15.95,16.14-24.15,15.8-22.78,28.4-37.45,44.36-56.04,3.61-4.21,7.41-8.63,11.47-13.41,6.65-7.82,14.3-12.02,22.74-12.47,13.92-.74,25.49,8.74,29.83,12.86l2.93,2.56c41.2,36.02,92.48,80.85,162.92,84.1,7.5,.35,12.09,3.26,13.65,6.55h.81c-1.46-3.55-6.11-6.84-14.43-7.23h0Z"/><path class="g" d="M952.92,618.19c-3.01,2.99-4.53,6.88-4.53,11.56,0,14.3,14.15,32.2,20.6,38.17,23.78,21.99,37.09,24.52,55.01,20.12v-1.18c-17.69,4.37-30.8,1.91-54.24-19.77-6.34-5.86-20.24-23.4-20.24-37.33,0-4.37,1.41-7.98,4.19-10.75,4.77-4.74,13.61-7.12,26.28-7.06,15.39,.07,29.6,2.71,44,6.07v-1.17c-14.38-3.35-28.58-5.97-44-6.04-12.98-.06-22.1,2.43-27.08,7.39h0Z"/><path class="g" d="M664.9,1000.86c-64.64-2.98-113.49-45.69-152.75-80.01l-2.93-2.56c-8.25-7.21-15.56-13.04-21.72-17.35-7.64-5.34-21.86-15.28-44.52,8.19-24.44,25.31-46.9,52.65-66.74,81.26-8.09,11.67-15.39,22.9-21.94,33.61h.8c6.49-10.59,13.71-21.69,21.7-33.23,19.83-28.59,42.26-55.9,66.67-81.18,22.26-23.05,36.17-13.33,43.64-8.1,6.15,4.29,13.44,10.12,21.67,17.31l2.94,2.57c39.33,34.39,88.29,77.19,153.16,80.18,30.09,1.39,47.6,6.73,55.11,16.81,1.48,1.99,2.29,3.88,2.49,5.65h.69c-.19-1.92-1.02-3.9-2.62-6.06-7.63-10.26-25.31-15.69-55.62-17.08h0Z"/><path class="g" d="M202.55,723.11c-17.47,4.42-22.14,40.1-27.55,81.42-1.34,10.21-2.72,20.77-4.34,31.02-7.15,45.3-29.89,86.76-51.89,126.87-11.02,20.08-22.26,40.6-31.51,61.59h1.74c9.17-20.71,20.29-40.98,31.17-60.82,22.06-40.22,44.87-81.81,52.07-127.38,1.62-10.27,3.01-20.84,4.34-31.06,5.11-39.04,9.94-75.92,26.36-80.08,12.79-3.24,32.2,13.42,59.33,50.93,38.07,52.63,55.8,96.79,55.8,138.97,0,23.97-5.95,47.75-17.69,70.65-7.31,14.26-16.19,26.81-25.16,38.79h1.99c8.77-11.75,17.42-24.07,24.59-38.06,11.86-23.14,17.87-47.15,17.87-71.38h0c0-42.54-17.83-87-56.1-139.91-27.94-38.63-47.33-55-61.02-51.54h0Z"/><path class="g" d="M561.81,1018.1c-10.79-6.13-20.58-14.08-30.04-21.77-13.65-11.09-27.77-22.56-45.11-28.73-30.58-10.88-44.71,10.45-59.67,33.03-1.38,2.08-2.77,4.18-4.19,6.28-2.52,3.72-4.9,7.24-7.29,10.7-1.18,1.7-2.69,3.8-4.58,6.39h.84c1.75-2.4,3.18-4.39,4.29-6,2.4-3.47,4.78-6.98,7.32-10.73,1.41-2.08,2.8-4.18,4.18-6.27,14.81-22.35,28.79-43.47,58.87-32.77,17.23,6.13,31.3,17.56,44.91,28.62,9.48,7.71,19.29,15.67,30.13,21.83,3.25,1.84,7.47,3.53,11.94,5.31h1.84c-.46-.19-.93-.37-1.39-.55-4.53-1.8-8.8-3.5-12.05-5.35h0Z"/><path class="g" d="M956.58,304.05c-7.7,.88-14.38,5.72-19.84,14.4-9.88,15.69-14.3,48.5-14.3,74.06,0,4.99,.17,9.57,.5,13.59,2.07,24.95,6.99,50.94,15.06,79.45,1.15,4.08,2.4,8.14,3.7,12.06,15.78,47.54,40.76,75.02,82.3,88.21v-1.21c-40.95-13.15-65.62-40.38-81.22-87.37-1.3-3.9-2.54-7.95-3.69-12.01-8.04-28.43-12.95-54.35-15.02-79.23-.33-4-.5-8.54-.5-13.5,0-25.4,4.37-57.96,14.13-73.46,5.27-8.37,11.67-13.04,19.01-13.87,18.45-2.1,40.1,19.42,57.49,36.71,3.51,3.49,6.78,6.74,9.8,9.58v-1.57c-2.79-2.65-5.79-5.62-8.99-8.81-17.57-17.46-39.43-39.19-58.42-37.04h0Z"/><path class="g" d="M898.7,738.68c-2.31-3.68-2.62-7.93-2.62-11.61,0-1.73,.08-3.47,.16-5.32,.08-1.83,.17-3.73,.17-5.62,0-4.24-.4-9.76-3.51-14.78-8.01-12.94-17.31-17.22-22.56-15.73-3.47,.99-5.46,4.35-5.46,9.22,0,4.34,1.56,9.86,4.5,15.96,1.88,3.9,5.24,7.4,8.5,10.79,3.93,4.1,8,8.33,9.33,13.19,.41,1.5,.61,2.98,.61,4.52,0,3.08-.79,5.83-1.63,8.75-.83,2.88-1.68,5.86-1.68,9.13,0,1.14,.1,2.29,.31,3.4,1.08,5.77,4.74,9.72,8.29,13.54,2.95,3.18,6,6.47,7.52,10.8,1.71,4.89,2.54,11.53,2.54,20.29,0,11.38-1.43,23.99-2.58,34.13-.33,2.92-.64,5.63-.88,8.04-2.11,21.06-8.71,42.95-20.17,66.94-12.13,25.39-23.38,43.56-32.44,58.17-4.94,7.97-7.44,16.13-7.44,24.24,0,10.31,3.92,19.47,9.95,27.25h.85c-6.12-7.76-10.11-16.93-10.11-27.25,0-7.98,2.47-16.02,7.35-23.9,9.05-14.61,20.32-32.8,32.46-58.22,11.49-24.06,18.11-46.03,20.23-67.16,.24-2.4,.55-5.11,.88-8.03,1.15-10.15,2.58-22.79,2.58-34.21,0-8.84-.84-15.55-2.58-20.51-1.56-4.46-4.66-7.8-7.66-11.04-3.64-3.92-7.07-7.63-8.12-13.2-.2-1.09-.3-2.16-.3-3.28,0-3.18,.84-6.11,1.65-8.95,.81-2.83,1.65-5.76,1.65-8.93,0-1.6-.21-3.14-.64-4.7-1.38-5.03-5.51-9.33-9.5-13.49-3.22-3.35-6.55-6.82-8.38-10.62-2.9-6.01-4.43-11.42-4.43-15.66,0-4.61,1.76-7.66,4.96-8.57,5.01-1.43,13.97,2.79,21.8,15.43,3.02,4.87,3.41,10.27,3.41,14.42,0,1.87-.09,3.76-.17,5.58-.08,1.77-.16,3.6-.16,5.35,0,3.77,.33,8.14,2.73,11.97,2.65,4.22,9.34,7.42,15.81,10.51,3.9,1.87,7.6,3.63,10.15,5.51,21.22,15.57,44.06,16.53,71.82,13.16,9.54-1.16,18.94-3.09,28.1-5.43v-.71c-9.19,2.35-18.61,4.29-28.18,5.45-27.61,3.35-50.3,2.41-71.34-13.03-2.61-1.91-6.33-3.69-10.26-5.57-6.38-3.05-12.98-6.21-15.53-10.26h0Z"/><path class="g" d="M173.4,648.35c2.89,1.82,2.87,6.41,.01,13.53-.67,1.66-1.27,3.36-1.85,5.01-3.23,9.15-6.02,17.06-18.34,12.86-8.92-3.05-13.63-7.35-13.63-12.43,0-4.98,4.56-10.3,12.19-14.25,10.05-5.15,18.12-6.91,21.61-4.71h0Zm-34.94,18.96c0,3.92,2.5,9.45,14.4,13.51,13.38,4.57,16.49-4.23,19.78-13.55,.58-1.63,1.17-3.32,1.83-4.96,1.48-3.67,2.23-6.76,2.23-9.18,0-2.68-.9-4.61-2.69-5.73-5.52-3.48-17.74,2.1-22.74,4.66-8.02,4.14-12.8,9.85-12.8,15.26h0Z"/><path class="g" d="M511.7,962.5c-1.21-1.02-2.43-2.05-3.65-3.09-17.23-14.65-35.06-29.79-56.37-12.58-16.48,13.32-30.08,33.41-42.07,51.14-2.49,3.67-4.83,7.14-7.2,10.56-1.59,2.29-3.86,5.4-6.49,9-1.44,1.98-3.03,4.15-4.7,6.46h.84c1.57-2.16,3.05-4.2,4.41-6.06,2.63-3.6,4.9-6.71,6.5-9.01,2.37-3.42,4.72-6.89,7.21-10.57,11.97-17.69,25.53-37.74,41.93-51,20.87-16.86,38.47-1.9,55.49,12.57,1.23,1.04,2.44,2.08,3.66,3.09,15.16,12.72,35.47,28.97,58.08,41.82,13.73,7.8,28.15,14.23,42.96,19.16h2.24c-15.47-4.99-30.54-11.61-44.86-19.75-22.56-12.83-42.84-29.05-57.98-41.75h0Z"/><path class="g" d="M1020.19,653.92c-3.65,1-6.23,2.7-8.72,4.35-3.81,2.52-7.1,4.69-13.32,3.83-8.5-1.18-29.47-11.46-29.47-22.57,0-.11,0-.22,0-.33,.22-5.55,1.62-9.08,4.17-10.48,4.68-2.56,12.59,2.06,18.94,5.78,3.44,2.01,6.41,3.75,8.34,4.06,3.84,.62,6.04-1.09,8.17-2.74,1.69-1.31,3.29-2.55,5.64-2.49,4.94,.12,7.26,2.31,9.72,4.63,.11,.1,.23,.21,.34,.32v-.93c-2.51-2.37-4.92-4.57-10.04-4.69-2.59-.06-4.36,1.31-6.07,2.64-2.01,1.56-4.09,3.17-7.64,2.6-1.81-.29-4.73-2-8.11-3.97-6.5-3.8-14.6-8.54-19.61-5.79-2.82,1.55-4.3,5.16-4.52,11.05,0,.12,0,.24,0,.36,0,11.46,21.39,22.04,30.06,23.24,6.48,.9,10.03-1.45,13.79-3.93,2.45-1.62,4.98-3.29,8.52-4.26,1.39-.38,2.57-.58,3.63-.68v-.68c-1.13,.11-2.36,.31-3.81,.71h0Z"/><path class="g" d="M281.34,975.46c8.86-17.3,12.99-31.99,12.99-46.25,0-14.92-4.48-28.19-9.68-43.56-2.95-8.72-6.28-18.59-9.1-29.79-1.42-5.68-1.59-10.63-1.59-13.86,0-2.17,.08-4.25,.17-6.27,.08-1.91,.15-3.71,.15-5.49,0-9.22-2.18-16.56-13.04-24.6-7.33-5.42-12.99-7.45-17.98-9.25-7.47-2.68-13.37-4.8-21.81-16.6-2.17-3.03-3.87-7.36-5.52-11.55-2.65-6.74-4.95-12.57-8.83-12.81-3.15-.19-6.66,3.47-11.05,11.53-5.24,9.66-5.95,23.44-5.95,35.65,0,5.45,.17,11.16,.33,16.69,.16,5.56,.33,11.3,.33,16.8,0,12.26-.85,20.85-2.75,27.85-10.76,39.6-31.12,76.73-49.09,109.49-9.43,17.2-18.57,33.88-26.43,50.54h1.26c7.79-16.47,16.83-32.98,26.16-49.99,18-32.81,38.4-70.01,49.19-109.74,1.93-7.11,2.79-15.79,2.79-28.15,0-5.52-.17-11.27-.33-16.83-.16-5.52-.33-11.23-.33-16.66,0-12.06,.69-25.67,5.81-35.11,4.04-7.42,7.4-11.1,9.98-10.94,3.16,.2,5.43,5.98,7.84,12.09,1.67,4.26,3.4,8.65,5.65,11.79,8.65,12.09,15,14.37,22.35,17.01,4.92,1.77,10.49,3.77,17.69,9.09,10.48,7.75,12.58,14.81,12.58,23.68,0,1.76-.07,3.55-.15,5.45-.08,2.02-.17,4.12-.17,6.31,0,3.29,.17,8.34,1.63,14.14,2.82,11.24,6.17,21.14,9.12,29.88,5.16,15.27,9.62,28.46,9.62,43.19,0,14.07-4.09,28.6-12.87,45.73-8.03,15.66-18.7,29.74-29.03,43.37-1.43,1.89-2.87,3.79-4.3,5.69h1.42c1.26-1.67,2.53-3.34,3.79-5,10.36-13.66,21.06-27.78,29.14-43.53h0Z"/><path class="g" d="M992.31,421.69c-.47,1.1-.71,2.81-.71,5.06,0,13.2,7.87,41.17,7.95,41.45,.89,3.13,1.84,6.24,2.85,9.26,5.13,15.47,12.01,26.92,21.6,35.26v-.9c-9.27-8.23-15.94-19.47-20.95-34.57-1-3.01-1.96-6.11-2.84-9.23-.08-.28-7.93-28.16-7.93-41.27,0-2.16,.22-3.77,.66-4.79,2.17-5.06,7.93-3.2,20.55,.87,3.02,.97,6.57,2.11,10.51,3.29v-.71c-3.85-1.16-7.33-2.27-10.3-3.23-12.63-4.07-18.98-6.12-21.39-.49h0Z"/><path class="g" d="M1012.8,452.58c0,3.16,.63,6.98,1.86,11.35,.83,2.91,1.71,5.8,2.64,8.59,1.95,5.86,4.17,10.93,6.7,15.35v-2.38c-2.08-3.93-3.95-8.33-5.62-13.33-.92-2.77-1.8-5.64-2.62-8.54-1.21-4.27-1.82-7.99-1.82-11.04,0-5.68,2.08-9.12,6.17-10.22,1.16-.31,2.49-.38,3.89-.33v-1.14c-1.5-.05-2.93,.03-4.18,.37-3.2,.87-7.01,3.53-7.01,11.32h0Z"/><path class="g" d="M975.19,381.09c-3.98,1.98-5.4,8.81-4.39,21.05,1.81,21.84,6.2,44.86,13.41,70.35,.96,3.41,2,6.77,3.07,9.99,7.68,23.14,19.47,39.29,36.72,49.78v-.8c-16.92-10.42-28.51-26.39-36.08-49.19-1.07-3.22-2.1-6.57-3.06-9.96-7.2-25.45-11.58-48.42-13.39-70.22-.21-2.5-.31-4.8-.31-6.84,0-7.66,1.41-12.09,4.32-13.53,5.11-2.54,14.59,4.62,23.75,11.54,1.62,1.23,3.25,2.46,4.87,3.65,6.53,4.8,13.2,9.07,19.89,12.92v-.79c-6.55-3.79-13.08-7.98-19.48-12.68-1.62-1.19-3.24-2.42-4.86-3.64-9.76-7.37-18.98-14.34-24.47-11.61h0Z"/><path class="g" d="M986.89,358.13c-9.86-10.49-17.66-14.7-23.19-12.51-6.56,2.6-9.89,14.17-9.89,34.4,0,6.74,.36,14.41,1.11,23.45,1.9,22.87,6.46,46.87,13.95,73.37,1.02,3.59,2.12,7.18,3.28,10.67,10.07,30.35,26.87,50.84,51.84,62.9v-.77c-24.64-12-41.23-32.32-51.19-62.34-1.16-3.49-2.26-7.07-3.27-10.65-7.48-26.46-12.04-50.41-13.93-73.24-.75-9.01-1.11-16.66-1.11-23.39,0-19.92,3.18-31.28,9.46-33.76,5.24-2.08,12.79,2.08,22.44,12.35,1.94,2.06,3.82,4.06,5.5,5.73,7.9,7.86,14.73,14.64,21.63,19.72,3.43,2.52,6.93,4.9,10.47,7.21v-.81c-3.4-2.23-6.77-4.53-10.07-6.95-6.86-5.04-13.67-11.81-21.56-19.65-1.67-1.67-3.55-3.65-5.48-5.71h0Z"/><path class="g" d="M260.88,964.98c8.61-16.81,12.81-33.3,12.81-50.41,0-9.58-3.91-30.26-10.45-48.29-5.73-15.79-15.24-34.63-28.05-34.67-15.07-.05-23.44,29.05-28.45,46.43-1.09,3.78-2.03,7.05-2.82,9.23-11.28,31.13-25.53,62.03-44.84,97.24-7.37,13.44-14.57,26.56-21.03,39.49h.77c6.42-12.82,13.55-25.83,20.86-39.16,19.33-35.24,33.59-66.17,44.88-97.34,.8-2.2,1.74-5.48,2.83-9.27,4.95-17.2,13.23-45.99,27.79-45.94,22.12,.08,37.81,62.42,37.82,82.29,0,16.99-4.17,33.37-12.74,50.09-7.13,13.9-17.2,27.18-26.93,40.03-4.72,6.22-9.56,12.61-14.28,19.3h.84c4.62-6.54,9.37-12.8,13.98-18.89,9.76-12.87,19.84-26.17,27-40.13h0Z"/><path class="g" d="M246.7,957.72c7.43-14.5,11.05-28.6,11.06-43.15,0-12.62-3.75-29.1-11.97-35.45-3.57-2.76-7.77-3.54-12.46-2.32-11.04,2.88-18.84,25.99-24.54,42.86-1.84,5.45-3.43,10.16-4.78,13.06-9.05,19.5-19.63,38.79-29.87,57.45l-1.14,2.08c-5.92,10.79-11.71,21.35-17.07,31.74h.77c5.32-10.28,11.05-20.74,16.9-31.41l1.14-2.08c10.24-18.67,20.83-37.97,29.89-57.49,1.36-2.93,2.95-7.65,4.8-13.12,5.33-15.78,13.39-39.63,24.07-42.42,4.47-1.17,8.47-.43,11.86,2.2,8.04,6.21,11.7,22.45,11.7,34.95,0,14.39-3.6,28.39-10.98,42.8-6.49,12.66-16.13,25.37-25.46,37.68-6.74,8.9-13.98,18.45-20.81,28.92h.82c6.76-10.31,13.89-19.73,20.55-28.51,9.34-12.32,19-25.06,25.52-37.77h0Z"/><path class="g" d="M13.42,620.14c-4.59-1.14-9.12-2.25-13.63-3.3v1.17c4.42,1.03,8.86,2.13,13.36,3.24,8.44,2.09,17.17,4.25,26.08,6,29.7,5.83,68.64,10.86,106.43-2.14,15.36-5.28,27.91-18.45,38.98-30.06,9.85-10.33,18.36-19.26,25.51-18.45,3.29,.37,6.21,2.77,8.93,7.34,1.26,2.11,1.89,5.72,1.89,10.72,0,17.47-7.71,48.29-15.36,71.08-8.31,24.79-21.56,55.34-37.44,60.08-5.06,1.51-10.17,.27-15.19-3.68-6.43-5.07-12.09-10.51-17.57-15.78-10.77-10.36-20.94-20.14-36.04-26.62-21.53-9.23-43.99-10.36-66.75-3.33-5.51,1.7-10.59,3.42-15.08,4.93-6.63,2.23-12.41,4.18-17.77,5.5v1.18c5.47-1.34,11.37-3.33,18.14-5.61,4.48-1.51,9.55-3.22,15.05-4.92,22.49-6.94,44.68-5.83,65.96,3.29,14.91,6.39,25.01,16.11,35.7,26.39,5.49,5.28,11.17,10.75,17.65,15.85,5.33,4.2,10.78,5.5,16.22,3.88,16.35-4.88,29.79-35.76,38.19-60.81,7.67-22.88,15.42-53.85,15.42-71.44,0-5.21-.69-9.02-2.06-11.31-2.92-4.9-6.12-7.48-9.79-7.89-7.71-.87-16.4,8.24-26.46,18.8-10.98,11.52-23.43,24.57-38.52,29.77-37.54,12.91-76.28,7.91-105.84,2.1-8.88-1.74-17.6-3.9-26.02-5.99h0Z"/><path class="g" d="M529.6,791.18c0-2.53,1.04-4.63,3.11-6.24,6.71-5.24,22.33-4.21,29.2-2.5,33.41,8.35,45.28,26.26,63.25,53.37,4.49,6.77,9.65,13.34,14.65,19.68,6.07,7.72,12.36,15.7,17.43,24.08,3.09,5.11,4.38,9.46,3.6,12.15-.35,1.2-1.08,2.05-2.2,2.54-2.65,1.16-7.31,.21-13.1-2.69-15.54-7.78-28.73-20.84-41.49-33.46-2.17-2.15-4.32-4.27-6.44-6.34-15.81-15.35-30.22-29-46.49-40.54-1.33-.94-3.12-2.02-5.02-3.17-6.82-4.11-16.16-9.75-16.5-16.4,0-.17-.01-.33-.01-.49h0Zm16.16,17.47c1.88,1.14,3.66,2.21,4.97,3.14,16.23,11.51,30.62,25.14,46.41,40.47,2.13,2.06,4.27,4.19,6.44,6.33,12.79,12.66,26.02,25.76,41.66,33.59,6.06,3.04,10.79,3.97,13.68,2.71,1.31-.57,2.18-1.58,2.58-2.98,.17-.58,.25-1.23,.25-1.93,0-2.81-1.36-6.53-3.92-10.77-5.1-8.42-11.39-16.42-17.48-24.15-4.98-6.34-10.14-12.89-14.62-19.64-18.06-27.24-29.99-45.24-63.66-53.65-6.98-1.74-22.88-2.77-29.78,2.62-2.38,1.86-3.5,4.29-3.36,7.31,.36,7.01,9.87,12.75,16.82,16.94h0Z"/><path class="g" d="M232.72,950.57c2.33-4.54,6.48-17.29,6.48-26.54,0-3.3-.55-5.82-1.63-7.49-2.34-3.61-4.54-5.2-6.71-4.86-4.8,.74-7.69,11.16-10.02,19.54-.96,3.45-1.79,6.43-2.57,8.12-9.27,19.98-19.99,39.5-30.35,58.39l-1.15,2.09c-4.49,8.19-8.91,16.25-13.11,24.18h1.29c4.12-7.76,8.43-15.64,12.83-23.64l1.14-2.08c10.37-18.9,21.09-38.45,30.38-58.46,.82-1.77,1.66-4.79,2.63-8.29,2.12-7.64,5.03-18.1,9.1-18.72,1.66-.25,3.54,1.21,5.58,4.36,.96,1.48,1.44,3.79,1.44,6.87,0,8.95-4.14,21.7-6.35,26.02-5.84,11.38-15.03,23.51-23.95,35.27-8.5,11.21-18.17,23.97-26.96,38.68h1.34c8.68-14.43,18.18-26.98,26.55-38.02,8.92-11.77,18.15-23.93,24.03-35.4h0Z"/><path class="g" d="M665.64,984.72c-58.99-2.72-105.49-43.37-142.85-76.03l-2.95-2.57c-44.47-38.84-60-37.26-77.99-19.04-19.72,19.98-49.35,51.48-78.91,94.1-10.09,14.55-19.31,28.94-27.52,42.82h1.32c8.11-13.68,17.2-27.84,27.13-42.17,29.51-42.55,59.1-74,78.79-93.95,17.47-17.7,32.65-19.14,76.43,19.1l2.94,2.57c37.49,32.78,84.15,73.57,143.54,76.31,55.75,2.57,72.12,23.56,76.71,38.14h1.19c-4.55-14.92-21-36.66-77.85-39.28h0Z"/><path class="g" d="M955.22,325.27c-14.25,6.69-17.25,33.71-17.25,55.2,0,7.55,.36,15.73,1.07,24.31,1.98,23.9,6.72,48.88,14.5,76.38,1.09,3.85,2.26,7.67,3.49,11.36,7.86,23.67,19.22,41.87,34.75,55.65,9.29,8.24,19.97,14.75,32.22,19.71v-.72c-32.5-13.17-53.9-37.44-66.32-74.86-1.22-3.68-2.39-7.5-3.48-11.34-7.77-27.46-12.5-52.4-14.48-76.26-.71-8.56-1.07-16.71-1.07-24.25,0-21.29,2.92-48.05,16.85-54.58,15.27-7.16,31.64,10.25,42.47,21.77,1.84,1.96,3.59,3.81,5.15,5.37,7.45,7.4,13.88,13.8,19.84,18.18,.35,.25,.69,.49,1.04,.74v-.84c-.21-.15-.42-.3-.63-.45-5.92-4.35-12.33-10.73-19.76-18.11-1.55-1.55-3.29-3.39-5.13-5.35-10.97-11.66-27.54-29.29-43.26-21.92h0Z"/><path class="g" d="M918.46,794.06c-2.6,10.12-2.77,21-2.93,31.53-.09,6.07-.19,12.35-.76,18.35-2.73,28.65-9.35,53.2-20.85,77.26-12.5,26.18-24.02,44.76-33.27,59.7-3.35,5.42-5.06,10.75-5.06,15.85,0,9.52,6.23,19.36,16.64,27.25h1.13c-10.68-7.85-17.09-17.72-17.09-27.25,0-4.97,1.67-10.19,4.95-15.49,9.26-14.95,20.78-33.55,33.31-59.76,11.53-24.13,18.17-48.76,20.91-77.49,.57-6.02,.67-12.32,.77-18.4,.16-10.48,.33-21.32,2.91-31.37,4.02-15.64,15.44-15.08,28.85-12.86,15.99,2.65,31.84,4.84,49.84,2.66,8.94-1.08,17.67-2.8,26.19-4.85v-.7c-8.54,2.06-17.3,3.79-26.27,4.88-17.91,2.17-33.71-.02-49.65-2.66-13.24-2.19-25.47-2.82-29.62,13.36h0Z"/><path class="g" d="M19.47,733.55c48.58-15.6,74.97-21.93,97.35,16.77,3.67,6.35,6.39,13.56,8.06,21.44,1.42,6.67,2.14,14.01,2.14,21.81,0,71.95-60.13,170.77-92.44,223.86l-1.1,1.81c-.99,1.63-1.95,3.21-2.89,4.76h1.33c.83-1.36,1.67-2.75,2.53-4.17l1.1-1.81c32.36-53.19,92.59-152.19,92.6-224.45,0-7.88-.73-15.3-2.17-22.05-1.7-7.99-4.45-15.31-8.19-21.77-22.81-39.46-49.53-33.07-98.68-17.29-6.22,2-12.71,4.08-19.34,5.98v1.19c6.75-1.93,13.35-4.05,19.69-6.08h0Z"/><path class="g" d="M12.54,824.38c1.71-.46,3.81-1.09,6.19-1.82,6.73-2.05,11.27-1.69,13.49,1.09,1.11,1.39,1.68,3.42,1.68,6.04,0,11.11-9.91,29.59-13.17,35.67-1.59,2.97-2.79,5.21-3.66,6.96l-4.61,9.33c-4.19,8.56-8.43,16.9-12.68,24.99v1.46c4.46-8.45,8.9-17.18,13.29-26.15l4.61-9.33c.87-1.74,2.06-3.98,3.65-6.94,3.28-6.11,13.25-24.71,13.25-35.99,0-2.78-.61-4.95-1.83-6.47-2.42-3.02-7.2-3.46-14.23-1.32-2.37,.72-4.46,1.36-6.18,1.81-4.11,1.1-8.29,2.2-12.56,3.23v.7c4.34-1.04,8.58-2.17,12.75-3.28h0Z"/><path class="g" d="M26.36,755c19.67-6.31,44.34-12.35,60.63-2.91,8.07,4.67,13.4,12.87,15.85,24.36,1.09,5.14,1.65,10.9,1.65,17.12,0,65.64-58,160.95-89.16,212.16l-5.74,9.45c-1.75,2.89-3.39,5.84-4.93,8.83h.77c1.49-2.87,3.06-5.7,4.74-8.48l5.74-9.45c31.19-51.26,89.25-146.69,89.26-212.52,0-6.27-.56-12.07-1.67-17.26-2.49-11.68-7.93-20.03-16.17-24.81-16.53-9.57-41.38-3.5-61.18,2.85-8.49,2.73-17.31,5.43-26.37,7.74v.71c9.13-2.33,18.02-5.05,26.57-7.8h0Z"/><path class="g" d="M8.44,808.99c1.55-.41,3.45-.99,5.64-1.66,10.83-3.3,27.2-8.3,34.75-3.58,3.08,1.93,5.09,4.91,5.98,8.86,.36,1.59,.54,3.38,.54,5.3,0,16.62-13.38,41.58-20.58,54.98-1.4,2.6-2.6,4.85-3.44,6.54l-.58,1.16c-.66,1.32-1.27,2.55-1.83,3.69l-2.16,4.39c-8.87,18.12-17.95,35.32-26.98,51.17v1.38c9.23-16.15,18.52-33.72,27.59-52.25l2.16-4.39c.56-1.13,1.17-2.36,1.83-3.68l.58-1.16c.84-1.68,2.04-3.92,3.43-6.52,7.22-13.46,20.66-38.51,20.66-55.31,0-1.97-.19-3.81-.55-5.45-.93-4.14-3.04-7.26-6.28-9.29-7.81-4.89-24.36,.16-35.31,3.5-2.19,.67-4.08,1.24-5.62,1.65-2.8,.74-5.62,1.49-8.48,2.22v.7c2.92-.74,5.8-1.5,8.66-2.26h0Z"/><path class="g" d="M4.34,793.59c12.14-3.23,24.7-6.58,37.65-6.93,16.75-.46,26.34,6.07,28.51,19.39,.32,1.98,.48,4.14,.48,6.43,0,23.14-16.52,56.26-25.4,74.06-.87,1.74-1.66,3.33-2.37,4.77l-2.15,4.39c-13.56,27.68-27.62,53.34-41.28,75.36v1.3c13.85-22.26,28.13-48.27,41.89-76.36l2.15-4.38c.71-1.44,1.5-3.03,2.37-4.77,8.9-17.84,25.47-51.06,25.47-74.36,0-2.32-.17-4.52-.49-6.54-2.23-13.71-12.05-20.43-29.2-19.96-13.04,.36-25.63,3.71-37.81,6.95-1.45,.39-2.91,.77-4.38,1.16v.71c1.53-.4,3.05-.8,4.56-1.2h0Z"/><path class="g" d="M31.23,770.17c1.04-.33,2.09-.68,3.13-1.02,11.07-3.64,22.52-7.4,33.57-1.32,9.22,5.07,16.7,15.34,19.05,26.16,.24,1.11,.43,2.22,.55,3.32,.31,2.71,.47,5.55,.47,8.45,0,30.55-17.62,66.4-30.48,92.57l-2.15,4.38c-16.47,33.63-36.22,66.1-53.65,94.74-.74,1.22-1.37,2.26-1.94,3.19v1.32c1.31-2.16,2.52-4.15,2.52-4.15,17.44-28.66,37.2-61.14,53.68-94.8l2.15-4.38c12.89-26.23,30.55-62.16,30.55-92.87,0-2.93-.16-5.8-.48-8.53-.13-1.12-.32-2.26-.57-3.38-2.39-11.01-10-21.46-19.38-26.62-11.31-6.22-22.9-2.41-34.11,1.27-1.05,.34-2.09,.69-3.13,1.02-9.98,3.2-20.43,6.36-31.24,8.97v.7c10.89-2.62,21.41-5.8,31.45-9.02h0Z"/><path class="g" d="M515.67,775.76c12.29-9.59,38.26-11.5,50.05-8.55,39.33,9.83,53.98,31.94,72.54,59.94,.92,1.4,1.86,2.81,2.8,4.24,11.25,17.08,24.01,36.45,41.43,47.49,9.21,5.84,19.76,8.11,29.97,10.3,9.97,2.14,20.28,4.36,29.09,9.93,6.29,3.98,12.72,8.6,12.72,12.7,0,3.13-3.8,6.02-11.6,8.81-2.45,.87-4.88,1.26-7.46,1.17-7.59-.26-14.79-4.69-21.76-8.98-6.02-3.71-11.71-7.2-17.62-8.2-9.38-1.58-18.32,.4-26.96,2.31-10.71,2.37-20.83,4.61-31.79,.68-13.14-4.71-27.69-20.4-39.37-33-3.97-4.29-7.72-8.33-11.05-11.57-12.72-12.35-25.87-25.13-40.5-36.46-2.67-2.07-6.36-4.4-10.27-6.87-10.93-6.91-24.54-15.5-26.9-25.04-.43-1.73-.64-3.41-.64-5.01,0-5.42,2.46-10.1,7.33-13.89h0Zm-7.79,19.18c2.46,9.98,16.29,18.71,27.39,25.73,3.89,2.45,7.56,4.77,10.18,6.81,14.59,11.29,27.72,24.04,40.41,36.37,3.31,3.21,7.05,7.25,11.01,11.52,11.77,12.7,26.42,28.5,39.82,33.3,11.27,4.04,22.02,1.66,32.42-.64,8.53-1.89,17.36-3.84,26.52-2.3,5.69,.96,11.28,4.4,17.21,8.05,7.1,4.36,14.43,8.88,22.32,9.15,2.68,.09,5.33-.32,7.88-1.23,8.43-3.01,12.36-6.15,12.36-9.88s-3.84-7.71-13.25-13.67c-8.98-5.68-19.39-7.92-29.46-10.08-10.11-2.17-20.56-4.42-29.6-10.15-17.22-10.92-29.9-30.17-41.09-47.16-.94-1.43-1.88-2.85-2.81-4.26-18.69-28.2-33.46-50.47-73.21-60.41-10.52-2.63-37.32-1.94-51.02,8.76-6.66,5.2-9.08,12.02-7.09,20.07h0Z"/><path class="g" d="M484.46,782.54c5.23-3.33,8.45-7.56,11.85-12.03,3.68-4.84,7.48-9.84,14.15-13.75,15.28-8.96,42.83-15.87,60.71-11.41,47.82,11.95,66.3,39.83,85.86,69.35,22.46,33.89,45.69,68.94,115.6,81.8,16.87,3.1,25.79,8.24,25.79,14.85,0,10.34-21.52,22.91-40.04,26.82-32.08,6.78-70.32,4.54-113.67-6.66-28.74-7.43-49.71-28.7-69.99-49.27-10.54-10.7-21.45-21.75-33.27-30.66-2.87-2.16-6.72-5.6-11.18-9.58-14.68-13.1-34.79-31.04-46.81-27.91-4.32,1.13-8.61,3.8-13.16,6.64-4.66,2.9-9.48,5.9-14.18,6.97-5.96,1.36-7.01-.76-7.94-2.62-.51-1.03-1.04-2.1-2.3-2.36-1.67-.35-4.22,.71-11.76,7.06-4.28,3.6-9.75,13.79-15.04,23.64-5.56,10.35-11.86,22.08-15.48,23.06-8.23,2.22-11.48,1.52-12.75,.55-.68-.52-1.01-1.28-1.01-2.33,0-9.95,28.33-38.82,54.84-62.52,.33-.29,.49-.46,.5-.47,3.37-4.44,4.21-8.35,4.94-11.8,1.04-4.87,1.94-9.08,9.23-14.15,3.47-2.41,7.65-2,12.06-1.57,4.44,.43,9.03,.88,13.03-1.67h0Zm-26.01,1.93c-7.81,5.42-8.82,10.13-9.88,15.12-.74,3.45-1.5,7.01-4.57,11.07l-.38,.34c-12.99,11.61-55.37,50.53-55.37,63.71,0,1.55,.55,2.76,1.63,3.59,2.3,1.76,6.92,1.67,14.14-.27,4.29-1.16,10.21-12.18,16.47-23.84,5.22-9.72,10.62-19.77,14.66-23.18,3.63-3.06,8.66-7.08,10.4-6.71,.47,.1,.75,.61,1.19,1.51,1.01,2.03,2.54,5.11,9.72,3.47,4.96-1.13,9.9-4.2,14.67-7.18,4.45-2.77,8.64-5.38,12.73-6.45,11.19-2.92,31.74,15.42,45.34,27.55,4.49,4,8.36,7.46,11.28,9.66,11.73,8.84,22.59,19.86,33.09,30.51,20.43,20.72,41.55,42.15,70.73,49.69,43.58,11.26,82.07,13.51,114.39,6.67,17.25-3.64,41.3-16.2,41.3-28.38,0-7.58-9.11-13.11-27.09-16.42-69.24-12.74-92.27-47.5-114.56-81.12-19.74-29.78-38.38-57.92-86.8-70.02-18.27-4.56-46.36,2.46-61.91,11.58-6.94,4.07-10.84,9.2-14.61,14.15-3.31,4.36-6.45,8.47-11.44,11.65-3.54,2.25-7.66,1.85-12.02,1.43-4.51-.44-9.17-.89-13.13,1.85h0Z"/><path class="g" d="M310.71,1024c43.44-76.74,112.54-159.43,146.88-174.49,20.63-9.04,45.27,12.88,76.48,40.63,35.46,31.53,79.59,70.78,132.56,73.22,64.57,2.98,91.08,34.97,99.1,60.65h1.66c-8-26.27-34.86-59.2-100.69-62.24-52.41-2.42-96.3-41.45-131.57-72.82-31.63-28.13-56.62-50.35-78.18-40.89-34.6,15.17-104.3,98.66-147.94,175.95h1.7Z"/><path class="g" d="M-.09,637.45s-.09-.08-.13-.12v.93c1.52,1.43,3.13,2.87,5.45,3.86,6.64,2.83,13.57,2.03,20.26,1.25,3.73-.43,7.59-.88,11.36-.7,5.93,.28,12.09,1.49,18.04,2.66,4.92,.96,10,1.96,14.95,2.44,30.1,2.92,57.32,.28,80.91-7.83,4.89-1.68,12.42-8.28,20.39-15.26,10.19-8.93,20.73-18.16,27.13-18.53,1.43-.08,2.55,.28,3.44,1.12,2.56,2.41,3.03,8.88,1.39,19.22-1.19,7.52-4.33,14.75-7.37,21.74-1.77,4.08-3.61,8.3-5.02,12.51-.4,1.19-.81,2.42-1.22,3.69-5,15.13-11.84,35.85-23.82,38.82-5.71,1.42-12.24-1.36-19.41-8.25-11.29-10.86-22.97-22.1-40.7-29.7-16.99-7.29-50.07-15.67-67.97-12.46-3.67,.66-6.14,2.19-8.54,3.67-3.21,1.98-6.23,3.85-11.72,3-4.04-.63-6.41-2.2-8.5-3.59-2.51-1.66-4.78-3.12-9.07-2.71v.68c4.08-.41,6.19,.94,8.69,2.6,2.15,1.43,4.58,3.04,8.77,3.7,5.74,.9,8.87-1.04,12.18-3.09,2.34-1.45,4.76-2.94,8.3-3.58,17.77-3.19,50.67,5.16,67.58,12.42,17.61,7.55,29.25,18.74,40.5,29.56,7.34,7.07,14.09,9.9,20.05,8.42,12.35-3.06,19.26-23.99,24.3-39.27,.42-1.27,.83-2.5,1.22-3.69,1.4-4.18,3.23-8.39,5-12.46,3.06-7.03,6.21-14.29,7.42-21.9,.65-4.07,.97-7.58,.97-10.44,0-4.68-.84-7.75-2.57-9.38-1.01-.96-2.34-1.4-3.95-1.3-6.63,.38-17.26,9.69-27.54,18.69-7.92,6.94-15.4,13.49-20.17,15.13-23.5,8.08-50.62,10.71-80.62,7.8-4.92-.48-9.99-1.47-14.88-2.43-5.98-1.17-12.16-2.38-18.14-2.67-3.83-.18-7.72,.27-11.48,.7-6.91,.8-13.44,1.56-19.91-1.2-2.38-1.01-4.01-2.56-5.59-4.04H-.09Z"/><path class="g" d="M12.58,712.1c44.85-14.4,91.23-29.29,123.74,26.95,4.86,8.41,8.42,17.83,10.59,28.02,1.75,8.21,2.63,17.13,2.63,26.5,0,76.03-56.55,171.13-92.59,230.43h1.86c36.15-59.5,92.32-154.32,92.32-230.43,0-9.48-.9-18.51-2.67-26.83-2.2-10.35-5.83-19.93-10.77-28.48-33.16-57.35-80.16-42.26-125.61-27.67-4.14,1.33-8.24,2.64-12.31,3.9v1.67c4.23-1.3,8.5-2.67,12.8-4.05h0Z"/><path class="g" d="M940.04,805.84c-7.66,8.28-8.31,20.67-8.88,31.59-.15,2.81-.28,5.46-.53,8.02-2.91,30.57-10.01,56.82-22.33,82.61-10.6,22.19-20.27,39.38-30.43,54.11-2.79,4.03-4.2,8.15-4.2,12.26,0,9.33,7.32,18.11,19.58,23.48,4.63,2.03,9.18,4.04,13.68,6.09h1.64c-4.95-2.27-9.95-4.48-15.05-6.71-12-5.27-19.17-13.81-19.17-22.86,0-3.96,1.37-7.95,4.07-11.87,10.19-14.75,19.87-31.97,30.49-54.2,12.36-25.87,19.48-52.19,22.39-82.84,.25-2.58,.38-5.23,.53-8.05,.57-10.81,1.21-23.06,8.7-31.16,8.69-9.39,25.19-8.07,39.74-6.9,7.16,.57,13.92,1.12,19.45,.45,8.21-1,16.34-2.97,24.27-5.05v-.71c-7.96,2.09-16.13,4.08-24.35,5.08-5.46,.66-12.19,.12-19.32-.45-14.71-1.18-31.38-2.52-40.3,7.12h0Z"/><path class="g" d="M979.54,1018.52c-.8,2-1.54,3.83-2.39,5.48h.76c.81-1.61,1.52-3.36,2.26-5.22,.38-.96,.78-1.94,1.2-2.96,6.18-14.64,12-25.82,18.31-35.19,7.92-11.75,16.09-25.01,24.31-39.41v-1.38c-8.42,14.78-16.78,28.39-24.88,40.4-6.34,9.41-12.17,20.62-18.37,35.3-.43,1.01-.82,2.01-1.21,2.97h0Z"/><path class="g" d="M1012.9,989.53c3.66-5.42,7.36-11.17,11.1-17.18v-1.29c-3.93,6.34-7.83,12.39-11.66,18.09-5.41,8.03-12.38,21.55-17.84,34.85h.73c5.42-13.17,12.32-26.52,17.68-34.47h0Z"/><path class="g" d="M473.62,1002.74c-7.34,1.12-13.9,6.18-20.05,15.48-1.26,1.9-2.54,3.82-3.86,5.79h.82c1.22-1.82,2.43-3.63,3.61-5.41,6.04-9.12,12.45-14.09,19.58-15.18,11.8-1.8,23.98,7.16,37.52,18.17,.91,.74,2.04,1.57,3.25,2.42h1.19c-1.52-1.06-2.91-2.06-4.01-2.95-13.68-11.11-25.98-20.16-38.06-18.31h0Z"/><path class="g" d="M1020.21,1006.91h-.02c-3.33,5.49-6.28,11.21-8.93,17.09h.75c2.61-5.75,5.51-11.36,8.77-16.75,.03-.05,1.69-2.79,3.22-5.31v-1.31c-2.84,4.68-3.59,5.92-3.79,6.28h0Z"/><path class="g" d="M2.04,868.83c2.16-4.27,5.12-10.11,5.12-15.27,0-2.16-.53-4.04-1.58-5.58-.09-.13-.18-.25-.28-.38-1.35-1.69-3.29-2.77-5.51-3.45v1.19c1.88,.62,3.5,1.56,4.63,2.96,.08,.1,.16,.2,.23,.31,.92,1.34,1.38,3,1.38,4.93,0,4.89-2.89,10.59-5,14.76-.32,.63-.62,1.22-.88,1.76,0,0-.15,.3-.36,.73v2.58l1.38-2.81c.27-.54,.56-1.13,.88-1.75h0Z"/><path class="g" d="M1008.47,864.46c.09,.56,.14,1.15,.14,1.78,0,5.09-3.06,11.24-5.76,16.67-.87,1.76-1.7,3.41-2.35,4.9-.28,.64-.59,1.41-.93,2.26-2.05,5.1-5.49,13.63-10.52,13.9-.39,.02-.7-.09-.97-.35-.53-.51-1.17-1.84-1.17-5.31,0-5.24,1.42-12.31,2.11-15.71,.14-.67,.24-1.19,.29-1.5,.15-.9,.31-1.93,.47-3.04,.87-5.98,2.19-15.01,6.85-18.03,1.8-1.17,3.94-1.37,6.53-.64,3.15,.89,4.88,2.55,5.31,5.07h0Zm-4.95-6.33c-2.94-.83-5.5-.57-7.61,.8-5.16,3.34-6.48,12.35-7.44,18.94-.16,1.1-.31,2.12-.46,3.01-.05,.3-.15,.8-.28,1.46-.69,3.44-2.13,10.61-2.13,15.97,0,3.21,.52,5.25,1.57,6.26,.53,.51,1.19,.74,1.95,.71,5.88-.32,9.51-9.33,11.67-14.72,.34-.84,.64-1.6,.91-2.22,.63-1.46,1.45-3.1,2.32-4.84,2.77-5.56,5.9-11.86,5.9-17.25,0-.69-.05-1.37-.16-2-.51-3.03-2.61-5.09-6.24-6.11h0Z"/><path class="g" d="M973.09,813.79c-6.69-1.08-13.61-2.21-18.87,2.21-6.28,5.27-6.72,13.88-7.11,21.48l-.04,.78c-.14,2.7-.3,5.76-.58,8.7-3.09,32.48-10.66,60.43-23.82,87.97-4.14,8.67-8.86,17.19-13.43,25.43-2.51,4.52-5.1,9.2-7.57,13.86l-.17,.32c-2.9,5.46-5.9,11.11-5.9,16.91,0,3.06,.83,5.83,2.54,8.45,6.03,9.26,17.73,13.71,29.05,18.01,5.14,1.95,10,3.84,14.25,6.09h1.42c-4.54-2.55-9.82-4.6-15.43-6.73-11.21-4.26-22.81-8.67-28.71-17.74-1.64-2.51-2.43-5.15-2.43-8.08,0-5.64,2.96-11.21,5.82-16.59l.17-.32c2.47-4.65,5.06-9.33,7.57-13.85,4.57-8.25,9.3-16.78,13.45-25.47,13.19-27.61,20.78-55.64,23.88-88.2,.28-2.95,.44-6.02,.58-8.73l.04-.78c.38-7.46,.82-15.91,6.87-20.99,5.02-4.22,11.78-3.12,18.32-2.06,2.1,.34,4.09,.66,6.05,.82,7.62,.61,15.5,1.24,22.61,.38,7.75-.94,15.16-2.59,22.35-4.41v-.7c-7.22,1.83-14.66,3.5-22.43,4.44-7.05,.85-14.89,.23-22.51-.38-1.91-.15-3.88-.47-5.97-.81h0Z"/><path class="g" d="M481.32,982.61c-16.62-5.92-23.3,.04-41.04,26.82-1.41,2.13-2.82,4.26-4.3,6.45-1.9,2.81-3.72,5.48-5.53,8.12h.83c1.73-2.52,3.46-5.08,5.28-7.76,1.46-2.17,2.88-4.3,4.29-6.43,17.5-26.43,24.07-32.31,40.24-26.55,14.65,5.21,27.06,15.29,40.2,25.97,6.11,4.97,12.36,10.03,19.03,14.78h1.18c-6.95-4.9-13.44-10.16-19.78-15.31-13.19-10.71-25.64-20.83-40.4-26.08h0Z"/><path class="g" d="M964.14,844.03c-3.14,7.19-3.89,15.04-4.61,22.63-.41,4.32-.84,8.79-1.71,13.06-4.34,21.43-11.33,42.32-20.77,62.07-4.34,9.1-9.18,17.83-13.87,26.29-.66,1.2-1.55,2.59-2.5,4.07-3.11,4.88-6.99,10.95-6.99,16.38,0,2.03,.55,3.85,1.65,5.41,2.9,4.15,8.75,6.1,13.91,7.83,1.29,.43,2.5,.84,3.61,1.26,1.94,.74,4.62,2.21,7.46,3.78,6.87,3.78,15.41,8.49,20.55,6.8,5.19-1.71,8.03-8.47,10.31-13.9,.52-1.23,1.01-2.39,1.48-3.39,4.41-9.28,8.93-17.32,13.82-24.57,12.12-17.99,24.89-39.65,37.53-63.63v-1.46c-12.83,24.41-25.79,46.45-38.09,64.7-4.91,7.28-9.45,15.35-13.87,24.66-.48,1.01-.97,2.18-1.49,3.42-2.23,5.3-5.01,11.91-9.9,13.52-4.86,1.6-13.26-3.03-20.01-6.75-2.98-1.64-5.56-3.06-7.54-3.82-1.12-.43-2.34-.83-3.63-1.27-5.06-1.69-10.79-3.61-13.56-7.57-1.01-1.44-1.52-3.13-1.52-5.02,0-5.23,3.82-11.21,6.88-16.01,.95-1.49,1.85-2.89,2.53-4.12,4.68-8.45,9.52-17.18,13.88-26.3,9.46-19.8,16.46-40.74,20.82-62.23,.87-4.31,1.3-8.79,1.72-13.13,.72-7.54,1.47-15.33,4.56-22.42,5.47-12.53,16.16-12.48,27.48-12.42,3.74,.02,7.6,.04,11.31-.41,7.19-.87,13.94-2.26,20.44-3.82v-.7c-6.53,1.57-13.3,2.97-20.52,3.84-3.67,.44-7.51,.43-11.23,.41-11.55-.06-22.46-.11-28.11,12.83h0Z"/><path class="g" d="M1022.17,874.54c-16.51,33.72-33.69,64.08-49.66,87.78-2.11,3.12-3.85,6.51-5.55,9.78-2.34,4.53-4.76,9.21-8.12,13.18-4.58,5.4-9.08,6.79-14.6,4.51-4.33-1.79-6.43-4.81-6.43-9.23,0-7.37,5.97-17.18,10.33-24.34,1.72-2.83,3.2-5.27,4.12-7.17,10.03-21,17.46-43.2,22.08-65.99,1.04-5.13,1.51-10.05,1.97-14.8,.08-.82,.15-1.68,.22-2.55,.45-5.72,.96-12.19,5.21-16.05,4.26-3.86,12.88-4.23,19.81-4.53,1.92-.08,3.73-.16,5.31-.3l.86-.08c4.56-.42,11.35-1.04,16.29,.59v-1.19c-5.15-1.57-11.84-.96-16.4-.53l-.86,.08c-1.56,.14-3.36,.22-5.26,.3-7.11,.31-15.97,.69-20.53,4.83-4.59,4.16-5.12,10.88-5.59,16.8-.07,.86-.14,1.71-.21,2.53-.45,4.72-.92,9.61-1.95,14.68-4.6,22.7-12,44.81-21.99,65.72-.89,1.85-2.36,4.27-4.06,7.07-4.43,7.28-10.49,17.25-10.49,24.94,0,4.86,2.4,8.32,7.13,10.28,5.97,2.47,11.03,.94,15.9-4.82,3.45-4.07,5.9-8.81,8.27-13.39,1.68-3.25,3.41-6.6,5.48-9.67,16-23.75,33.2-54.15,49.74-87.92,.32-.65,.58-1.17,.81-1.65v-2.58c-.62,1.26-1.83,3.73-1.83,3.73h0Z"/><path class="g" d="M573.71,801.77c3.97,.82,8.85,3.19,13.39,6.51,4.73,3.46,12.69,10.55,12.88,19.18l.57,.08h-.57c0,.14,0,.28-.03,.41-.1,.82-.45,.96-.56,1-.63,.25-2.82,.21-9.58-5.48l-.2-.17c-1.68-1.39-3.38-2.75-5.08-4.12-2.61-2.09-5.32-4.26-7.88-6.5-.46-.41-1.06-.88-1.73-1.41-2.66-2.12-6.67-5.32-6.67-8.11h0c.02-.46,.18-.8,.51-1.06,1.01-.79,3.29-.67,4.94-.33h0Zm-6.59,1.34v.15c0,3.24,4.1,6.51,7.1,8.9,.65,.52,1.23,.98,1.68,1.38,2.58,2.26,5.29,4.43,7.92,6.53,1.7,1.36,3.39,2.72,5.06,4.1l.2,.17c5.39,4.54,8.9,6.4,10.73,5.67,.51-.2,1.13-.7,1.28-1.93,.02-.18,.03-.36,.03-.55v-.11c-.2-9.11-8.45-16.48-13.35-20.07-4.67-3.41-9.71-5.86-13.83-6.71-.96-.2-4.22-.75-5.87,.54-.59,.46-.92,1.12-.95,1.91h0Z"/><path class="g" d="M759.5,638.43c-3.98,8.74-5.91,19.01-5.91,31.39,0,25.79,8.67,55.93,16.32,82.51,6.22,21.62,12.09,42.03,12.1,56.18,0,8.32-2,13.97-6.12,17.26-4.99,3.99-13.13,4.63-24.88,1.97-25.41-5.75-55.93-38.63-82.86-67.64-16.37-17.63-31.83-34.29-44.4-43.02-40.26-27.99-111.95-37.19-154.5-6.29-10.75,7.81-21.44,21.04-32.75,35.06-24.08,29.84-51.38,63.66-86,50.06-16.26-6.39-23.66-22.05-31.51-38.63-4.9-10.37-9.97-21.09-17.43-29.57-6.46-7.35-12.78-13.26-18.9-18.97-15.7-14.68-28.11-26.27-28.11-50.47,0-3.81,.31-7.96,.93-12.31,8.61-60.78,21.81-131.87,69.68-206.48,52.69-82.11,107.97-158.46,204.54-190.35,41.66-13.76,90.79-7.73,122.25,15.01,21.32,15.41,32.6,36.88,32.6,62.1,0,8.9-1.42,18.33-4.22,28.02-8.73,30.16-26.65,49.24-54.79,58.33-25.2,8.14-56.2,7.74-86.18,7.36-48.07-.61-97.79-1.25-126.56,32.73-13.75,16.23-13.96,16.67-11.65,26.05,1,4.06,2.37,9.62,3.25,19.01,.66,7.04,.83,12.03,.97,16.04q.47,13.73,18.44,33.56l.24,.27c5.06,5.58,8.8,13.63,12.76,22.16,5.88,12.65,11.96,25.73,22.82,30.42,14.54,6.29,56.2,.6,74.1-3.13,21.19-4.42,40.7-17.97,57.91-29.91l3.63-2.52c6.06-4.19,12.23-8.63,18.19-12.92,34.95-25.15,71.09-51.16,116.14-50.52,29.15,.41,63.55,32.27,66.93,61.98,.21,1.89,.33,3.78,.33,5.61,0,17.45-9.69,29.91-19.95,43.1-6.33,8.14-12.88,16.56-17.43,26.56h0Zm38.18-75.39c-3.43-30.19-38.41-62.57-68.04-62.99-45.43-.64-81.72,25.47-116.82,50.73-5.96,4.29-12.12,8.72-18.18,12.91l-3.63,2.52c-17.12,11.89-36.53,25.36-57.5,29.74-17.78,3.71-59.12,9.38-73.41,3.2-10.46-4.52-16.45-17.4-22.24-29.86-4-8.6-7.78-16.73-12.95-22.44l-.24-.27q-17.7-19.53-18.15-32.84c-.14-4.03-.31-9.04-.97-16.11-.89-9.48-2.27-15.08-3.28-19.18-.64-2.6-1.1-4.48-1.1-6.15,0-4.11,2.9-7.53,12.52-18.89,28.43-33.57,77.87-32.94,125.68-32.33,60.17,.77,122.38,1.56,142.08-66.51,2.83-9.79,4.27-19.32,4.27-28.33,0-25.6-11.44-47.39-33.07-63.02-31.74-22.94-81.28-29.03-123.27-15.16-96.92,32.01-152.34,108.52-205.14,190.81-47.99,74.8-61.22,146.03-69.85,206.93-.62,4.41-.94,8.6-.94,12.47,0,24.7,12.56,36.44,28.47,51.3,6.09,5.69,12.39,11.58,18.82,18.89,7.36,8.36,12.39,19.01,17.26,29.31,7.94,16.79,15.44,32.65,32.12,39.21,35.39,13.91,62.97-20.26,87.3-50.4,11.26-13.95,21.9-27.13,32.53-34.85,42.16-30.62,113.24-21.46,153.18,6.31,12.47,8.67,27.89,25.27,44.21,42.86,27.04,29.13,57.69,62.14,83.44,67.97,12.12,2.74,20.57,2.03,25.85-2.19,4.41-3.52,6.55-9.46,6.55-18.15,0-14.3-5.9-34.79-12.14-56.49-7.63-26.51-16.28-56.56-16.28-82.2,0-12.22,1.9-22.33,5.81-30.92,4.5-9.88,11-18.24,17.3-26.33,10.38-13.35,20.19-25.95,20.19-43.79,0-1.88-.11-3.81-.33-5.74h0Z"/><path class="g" d="M421.66,12.3c-3.66,5.02-7.76,10.03-12.09,15.34-13.24,16.22-28.26,34.6-28.26,51.12,0,3.25,.57,6.35,1.75,9.46,11.03,29.18,41.89,24.99,59.3,19.9,10.64-3.11,21.16-7.13,31.34-11.02,11.86-4.53,24.13-9.22,36.62-12.48,7.54-1.97,15.48-2.96,23.16-3.91,23.55-2.94,45.79-5.71,45.79-37.11,0-2.49-.14-5.17-.42-7.97-.35-3.57-.91-6.52-1.72-9.01-2.69-8.36-7.75-10.85-15.42-14.63-2.32-1.14-4.95-2.44-7.77-4.05-4.34-2.47-8.46-5.15-12.43-7.94h-1.18c4.23,3.01,8.63,5.9,13.28,8.54,2.85,1.62,5.48,2.92,7.81,4.06,7.51,3.7,12.47,6.15,15.08,14.23,.79,2.45,1.34,5.35,1.69,8.87,.27,2.78,.41,5.44,.41,7.9,0,30.8-20.94,33.41-45.2,36.43-7.7,.96-15.66,1.95-23.25,3.93-12.53,3.27-24.81,7.96-36.69,12.51-10.16,3.88-20.67,7.9-31.28,11-17.19,5.02-47.64,9.18-58.47-19.49-1.14-3.03-1.7-6.05-1.7-9.22,0-16.27,14.93-34.55,28.1-50.68,4.34-5.31,8.44-10.33,12.12-15.36,2.77-3.8,5.21-7.14,6.94-9.64,.71-1.01,1.41-2.05,2.11-3.08h-.83c-.61,.9-1.23,1.8-1.85,2.69-1.73,2.5-4.17,5.84-6.94,9.63h0Z"/><path class="g" d="M930.12,30.28c15.58,10.01,30.54,21.84,41.84,31.03,.62,.51,1.27,1.06,1.94,1.63,4.8,4.09,10.78,9.18,16.79,5.59,5.82-3.48,6.99-13.43,7.84-20.69,.15-1.31,.3-2.54,.46-3.58,2.37-15.63,6.76-30.44,13.03-44.26h-.75c-6.22,13.8-10.59,28.57-12.96,44.16-.16,1.05-.3,2.29-.46,3.6-.84,7.12-1.98,16.88-7.51,20.18-5.59,3.35-11.36-1.57-15.99-5.52-.67-.58-1.32-1.13-1.95-1.64-11.31-9.2-26.29-21.04-41.9-31.07-13.85-8.9-28.18-15.19-43.37-21.85-5.12-2.25-9.73-4.92-13.74-7.87h-1.14c4.23,3.2,9.13,6.09,14.61,8.5,15.16,6.65,29.47,12.93,43.27,21.79h0Z"/><path class="g" d="M11.78,273.75c12.01-3.56,18.65-28.97,18.65-45.17,0-23.12-4.56-47.36-9.38-73.03-4.87-25.91-9.91-52.71-9.91-78.78,0-28.57,6.12-52.57,18.71-73.36,.67-1.1,1.39-2.28,2.08-3.42h-1.33c-.57,.94-1.17,1.92-1.72,2.83C16.17,23.79,10,47.98,10,76.77c0,26.17,5.05,53.03,9.93,78.99,4.82,25.61,9.36,49.8,9.36,72.82,0,16.2-6.79,40.81-17.84,44.08-3.7,1.09-7.61-.23-11.67-3.94v1.49c4.12,3.48,8.13,4.68,11.99,3.54h0Z"/><path class="g" d="M90.68,81.8c0,2.99-.02,5.9-.05,8.76-.02,2.75-.04,5.45-.04,8.12,0,15.51,.83,27.86,4.97,41.48,2.16,7.12,5.56,13.79,8.85,20.24,5.49,10.77,10.67,20.95,10.67,33.13,0,2.02-.15,4.06-.44,6.08-1.3,8.98-6.59,15.71-11.72,22.21-5.76,7.31-11.19,14.22-11.19,23.91,0,.88,.05,1.78,.14,2.68,.61,5.98,5.99,15.54,11.19,24.8,3.35,5.95,6.51,11.57,7.98,15.56,2.14,5.8,3.17,10.14,3.93,13.32,2.28,9.56,3.12,10.77,20.73,15.42,4.87,1.29,9.42,2.22,13.82,3.12,16.34,3.35,29.24,5.99,41.57,23.4,8.3,11.75,12.33,26.66,12.33,45.58,0,18.75-3.93,38.34-7.39,55.63-1.81,9.04-3.52,17.58-4.2,23.93-.39,3.69-.63,9.37-.63,15.2,0,16.7,6.12,36.27,14.89,37.64,4.16,.65,10.4-2.6,16.52-21.75l.68-2.14c23.41-72.98,53.96-123.88,105.45-175.68,14.2-14.29,20.82-25.2,20.82-34.34,0-2.15-.38-4.25-1.12-6.24-3.63-9.72-15.89-16.8-30.1-25.01-7.33-4.24-15.64-9.04-23.64-14.71-38.74-27.48-67.05-66.92-79.71-111.06-3.74-13.02-5.63-25.73-5.63-37.78,0-39.3,19.25-67.04,39.05-93.3h-1.42c-19.74,26.21-38.77,53.97-38.77,93.3,0,12.15,1.91,24.97,5.67,38.09,12.73,44.38,41.19,84.04,80.15,111.67,8.04,5.7,16.38,10.52,23.73,14.77,14.01,8.09,26.11,15.09,29.6,24.42,.7,1.87,1.05,3.83,1.05,5.84,0,8.82-6.51,19.48-20.49,33.54-51.63,51.94-82.26,102.97-105.73,176.13l-.68,2.14c-4.59,14.34-10.01,21.78-15.26,20.96-7.29-1.14-13.93-18.54-13.93-36.51,0-5.79,.23-11.43,.62-15.08,.67-6.29,2.38-14.81,4.18-23.82,3.47-17.34,7.41-37,7.41-55.86,0-19.17-4.1-34.29-12.54-46.24-12.59-17.78-25.69-20.46-42.27-23.86-4.39-.9-8.92-1.83-13.76-3.11-17.55-4.63-17.77-5.57-19.92-14.58-.76-3.2-1.81-7.58-3.97-13.44-1.5-4.07-4.68-9.73-8.05-15.73-4.9-8.73-10.46-18.61-11.05-24.36-.09-.86-.13-1.72-.13-2.56,0-9.3,5.32-16.05,10.95-23.2,5.21-6.62,10.61-13.47,11.95-22.75,.3-2.08,.45-4.18,.45-6.25,0-12.45-5.49-23.22-10.79-33.64-3.26-6.41-6.64-13.03-8.77-20.06-4.09-13.49-4.92-25.74-4.92-41.15,0-2.66,.02-5.36,.04-8.11,.02-2.86,.05-5.78,.05-8.77,0-13.9,1.62-26.34,4.96-38.03C101,29,106.89,14.51,113.76-.01h-1.26c-6.79,14.41-12.63,28.8-16.82,43.47-3.37,11.79-5.01,24.33-5.01,38.34h0Z"/><path class="g" d="M948.74,24.64c8.85,7.37,18.88,15.72,28.48,15.32,7.4-.3,8.65-7.46,9.75-13.78,.27-1.52,.51-2.96,.84-4.31,1.55-6.47,4.23-14.14,7.42-21.88h-.74c-3.15,7.68-5.81,15.29-7.35,21.72-.33,1.37-.58,2.82-.85,4.35-1.11,6.36-2.26,12.94-9.1,13.22-9.35,.38-19.26-7.88-28.02-15.17-3.61-3-7.01-5.84-10.08-7.81-10.1-6.49-20.18-11.57-30.53-16.32h-1.64c10.8,4.92,21.3,10.14,31.8,16.89,3.03,1.95,6.42,4.77,10.01,7.76h0Z"/><path class="g" d="M441.69,11.76c-1.83,2.64-4.43,6.21-7.16,9.94-3.91,5.36-8.13,10.52-12.62,16.02-1.01,1.24-2.16,2.59-3.38,4.03-7.78,9.17-18.43,21.73-18.43,33.28,0,3.18,.83,6.14,2.47,8.79,12.35,19.97,41.85,7.96,59.48,.79,2.15-.87,4.17-1.7,5.96-2.38,12.26-4.69,24.93-9.53,38.29-13.01,2.51-.66,5.46-1.31,8.58-2.01,14.3-3.18,33.89-7.54,40.95-18.49,1.17-1.8,1.89-3.7,2.16-5.64,.08-.58,.12-1.18,.12-1.77,0-13.38-20.33-26.72-35.18-36.47-2.69-1.77-5.12-3.37-7.24-4.84h-1.19c2.29,1.62,5.01,3.42,8.05,5.41,14.71,9.66,34.87,22.89,34.87,35.9,0,.56-.04,1.13-.12,1.68-.25,1.84-.95,3.65-2.06,5.37-6.91,10.71-26.33,15.03-40.52,18.19-3.13,.7-6.08,1.35-8.6,2.01-13.39,3.5-26.09,8.35-38.36,13.04-1.79,.69-3.82,1.51-5.97,2.39-17.42,7.1-46.59,18.96-58.64-.51-1.57-2.54-2.36-5.37-2.36-8.43,0-11.31,10.56-23.75,18.27-32.84,1.22-1.44,2.37-2.79,3.41-4.06,4.47-5.48,8.69-10.65,12.62-16.02,2.73-3.74,5.33-7.3,7.17-9.95,2.46-3.55,4.89-7.14,7.48-10.97,.27-.41,.52-.79,.79-1.19h-.82c-.19,.28-.37,.55-.56,.83-2.57,3.8-5,7.39-7.46,10.94h0Z"/><path class="g" d="M603.21,130.04c1.69-1.29,3.99-3.71,4.49-9.79,1.86-22.74,4.67-57.11,31.12-86.14l.3-.33c9.07-9.92,20.54-17.98,34.1-23.95,3.74-1.65,5.89-4.33,5.89-7.35,0-.82-.17-1.67-.51-2.49h-.81c.39,.82,.64,1.66,.64,2.49,0,2.74-2,5.19-5.48,6.73-13.64,6.01-25.19,14.12-34.32,24.11l-.3,.33c-26.6,29.2-29.42,63.71-31.29,86.54-.48,5.81-2.64,8.09-4.22,9.3-3.79,2.89-9.63,3.27-11.43,2.93-13.93-3.16-31.27-7.1-50.24-5.62-32.12,2.49-59.72,15.33-86.41,27.75-21.42,9.96-45.7,21.26-56.76,17.34-19.7-6.98-47.94-35.51-59.16-47.46-7.14-7.59-10.75-16.6-10.75-26.8,0-5.83,1.23-10.86,2.26-14.06,6.75-20.93,22.21-50.57,43.45-83.6h-.81c-21.14,32.94-36.55,62.49-43.29,83.39-1.04,3.24-2.29,8.34-2.29,14.26,0,10.37,3.68,19.55,10.94,27.27,11.26,11.98,39.6,40.6,59.43,47.63,11.33,4.02,35.75-7.34,57.29-17.37,26.63-12.39,54.18-25.2,86.18-27.68,18.87-1.47,36.15,2.45,50.07,5.61,1.88,.35,8.01-.03,11.97-3.06h0Z"/><path class="g" d="M945.01,2.01c6,3.67,12.81,7.82,20.22,6.82,7.28-.98,10.4-4.31,12.69-8.85h-.76c-2.21,4.28-5.18,7.25-12.02,8.17-7.17,.97-13.86-3.12-19.77-6.73l-1.12-.68c-.44-.27-.93-.5-1.38-.76h-1.42c.83,.44,1.67,.87,2.45,1.34l1.12,.68h0Z"/><path class="g" d="M35.09,298.56c12.33-19.64,18.33-42.53,18.33-69.99,0-25.26-4.97-51.7-9.78-77.27-4.68-24.89-9.52-50.62-9.52-74.54,0-24.26,5.03-44.36,15.38-61.46,1.81-2.99,3.71-6.12,5.7-9.39,1.18-1.93,2.39-3.92,3.61-5.94h-1.86c-1.05,1.73-2.09,3.44-3.11,5.11-1.99,3.27-3.9,6.4-5.7,9.39-10.51,17.35-15.61,37.72-15.61,62.28,0,24.06,4.85,49.87,9.54,74.83,4.79,25.5,9.75,51.87,9.75,76.98,0,27.15-5.92,49.76-18.08,69.14-8.18,13.01-16.77,19.3-25.54,18.67-2.8-.2-5.62-1.12-8.42-2.7v1.78c2.76,1.45,5.54,2.31,8.31,2.51,9.4,.67,18.49-5.86,27-19.41h0Z"/><path class="g" d="M582.59,87.2c2.84-5.18,4.05-12.29,5.22-19.17,.86-5.09,1.76-10.35,3.31-14.64,.98-2.71,2.45-5.7,4.01-8.86,3.22-6.53,6.86-13.92,6.86-20.66,0-1.3-.14-2.55-.41-3.73-.07-.31-.15-.62-.24-.93-2.88-9.64-14.97-14.8-26.09-19.23h-1.84c.07,.03,.13,.05,.2,.08,11.33,4.51,24.18,9.61,27.08,19.34,.09,.29,.16,.59,.23,.89,.26,1.12,.39,2.32,.39,3.57,0,6.58-3.61,13.9-6.79,20.36-1.57,3.18-3.05,6.19-4.04,8.93-1.57,4.34-2.47,9.64-3.34,14.76-1.16,6.82-2.36,13.87-5.15,18.96-6.16,11.24-17.45,10.06-29.4,8.83-4.68-.49-9.52-.99-13.93-.65-37.87,2.94-68.11,17.01-97.36,30.61-13.28,6.17-27.83,6.63-40.97,1.27-14.22-5.8-25.71-17.95-31.53-33.33-1.81-4.8-2.73-9.79-2.73-14.85,0-21.95,16.84-42.57,31.7-60.76,4.21-5.15,8.18-10.01,11.58-14.68,.88-1.21,1.68-2.3,2.43-3.33h-.85c-.66,.91-1.37,1.88-2.13,2.93-3.4,4.65-7.36,9.51-11.56,14.65-14.93,18.28-31.85,38.99-31.85,61.19,0,5.14,.94,10.22,2.78,15.09,5.88,15.56,17.51,27.85,31.91,33.72,13.32,5.43,28.07,4.97,41.52-1.29,29.19-13.58,59.37-27.62,97.12-30.55,4.36-.34,9.16,.16,13.81,.64,11.65,1.21,23.69,2.46,30.07-9.18h0Z"/><path class="g" d="M113.67,81.8c0,19.14,3.47,39.49,7.15,61.07,4.14,24.29,8.43,49.39,8.43,76.14,0,1.93-.02,3.84-.07,5.68-.22,9.28-1.75,17.16-3.1,24.11-1.17,6.01-2.18,11.19-2.18,16.17,0,11.83,6.23,20.52,21.49,30.01,7.36,4.58,16.15,7.91,24.66,11.14,15.05,5.71,30.6,11.62,39.82,24.67,3.17,4.49,5.63,13.09,8.23,22.2,4.54,15.9,9.69,33.93,20.43,36.38,13.47,3.05,31.89-24.61,41.79-39.47,1.84-2.76,3.43-5.15,4.58-6.72,12.78-17.43,21.3-31.84,21.3-45.53,0-1.88-.16-3.74-.49-5.55-1.96-10.92-9.69-20.85-24.32-31.23-42.98-30.49-74.41-74.34-88.51-123.46-4.33-15.08-6.52-29.93-6.52-44.12,0-39.26,15.86-68.31,33.53-93.3h-.84c-17.62,24.98-33.37,54.04-33.37,93.3,0,14.25,2.2,29.16,6.55,44.3,14.14,49.28,45.66,93.26,88.77,123.83,14.48,10.27,22.11,20.05,24.04,30.79,.32,1.77,.48,3.6,.48,5.43,0,13.51-8.46,27.81-21.17,45.13-1.16,1.58-2.75,3.97-4.6,6.75-9.81,14.72-28.07,42.13-41.08,39.18-10.35-2.36-15.44-20.18-19.93-35.9-2.62-9.16-5.09-17.81-8.33-22.4-9.34-13.22-25-19.16-40.14-24.91-8.47-3.22-17.24-6.54-24.54-11.08-15.04-9.35-21.17-17.87-21.17-29.43,0-4.91,1-10.07,2.16-16.04,1.36-6.97,2.9-14.88,3.12-24.22,.04-1.85,.07-3.76,.07-5.69,0-26.81-4.29-51.95-8.44-76.29-3.67-21.52-7.14-41.85-7.14-60.93,0-11.78,1.34-22.19,4.1-31.84C123.17,33.42,130.38,16.87,138.82-.01h-.76c-8.4,16.81-15.56,33.3-20.27,49.78-2.77,9.71-4.12,20.19-4.12,32.03h0Z"/><path class="g" d="M594.85,101.94c1.17-4.66,2.22-9.2,3.24-13.6,5.52-23.79,10.29-44.34,28.89-64.88l.37-.41c4.27-4.72,6.35-8.45,6.35-11.4,0-.46-.05-.91-.15-1.34-1.03-4.46-7.26-6.69-15.3-9.13-1.24-.38-2.48-.79-3.72-1.19h-2.24c1.92,.64,3.84,1.26,5.77,1.85,7.82,2.38,13.88,4.53,14.83,8.63,.69,2.95-1.28,6.86-6.05,12.12l-.37,.41c-18.72,20.68-23.51,41.31-29.05,65.19-1.02,4.39-2.07,8.94-3.24,13.59-4.19,16.69-19.88,13.87-35.06,11.14-6.63-1.19-13.49-2.43-19.23-1.98-34.99,2.71-63.91,16.16-91.89,29.18-3.34,1.56-6.61,3.22-9.77,4.83-16.4,8.36-30.57,15.58-48,5.26-13.12-7.77-23.86-19.4-34.24-30.66-1.87-2.03-3.73-4.05-5.6-6.03-4.08-4.35-6.15-10.26-6.15-17.58,0-28.03,29.84-71.15,47.82-95.96h-.84c-18.06,24.93-47.66,67.87-47.66,95.96,0,7.5,2.13,13.57,6.33,18.04,1.86,1.98,3.73,4,5.6,6.03,10.41,11.29,21.18,22.96,34.39,30.78,17.76,10.52,32.77,2.86,48.67-5.24,3.15-1.61,6.42-3.27,9.76-4.83,27.92-12.98,56.78-26.41,91.65-29.11,5.66-.44,12.47,.79,19.05,1.97,15.49,2.79,31.5,5.66,35.85-11.64h0Z"/><path class="g" d="M898.94,576.53c-4.56,2.38-8.87,4.62-12.36,3-5.23-2.43-6.02-7-6.79-11.42-.62-3.54-1.25-7.2-4.27-9.38-4.91-3.54-10.78-5.25-16.46-6.9-7.84-2.28-15.25-4.43-19.47-11.08-5.72-9.02-6.68-16.77-7.6-24.26-1.27-10.28-2.46-19.98-15.95-31.01-17.44-14.25-44.94-24.73-73.58-28.03-57.83-6.65-100.99,27.48-139.06,57.6-33.3,26.34-62.06,49.09-93.32,39.6-33.29-10.1-50.71-38.02-50.71-60.38,0-11.68,4.35-21.75,12.6-29.14,11.78-10.56,30.64-14.76,54.53-12.15,62.82,6.88,140.38,4.54,182.99-75.34,13.8-25.87,20.51-52.59,20.51-81.68,0-37.29-11.14-71.86-20.98-102.36-7.93-24.6-14.78-45.85-14.78-64.36,0-24.32,12.08-40.14,39.16-51.28,67.48-27.78,123.67-1.05,151.15,17.35,44.27,29.64,70.73,73.93,70.73,99.61,0,7.86-2.28,13.95-6.77,18.1-42.82,39.58-64.53,90.23-64.53,150.54,0,18.4,2.02,38.03,6,58.37,1.74,8.86,3.24,18.47,4.83,28.64,4.05,25.89,8.65,55.23,18.34,76.61,2.11,4.65,9.05,11.76,17.09,20.01,11.81,12.1,25.19,25.82,25.19,34.08,0,.73-.11,1.42-.33,2.03-1.31,3.65-3.25,5.86-5.94,6.74-6.86,2.27-17.37-4.69-25.82-10.29-5.07-3.36-9.44-6.26-12.37-6.8-3.78-.71-7.98,1.48-12.04,3.6h0Zm23.68,4.3c8.68,5.75,19.49,12.91,26.96,10.44,3.05-1.01,5.32-3.55,6.76-7.55,.27-.76,.41-1.59,.41-2.47,0-8.79-13.58-22.71-25.56-34.99-7.62-7.81-14.83-15.2-16.84-19.63-9.62-21.22-14.2-50.47-18.24-76.28-1.6-10.19-3.1-19.81-4.84-28.69-3.97-20.25-5.98-39.8-5.98-58.12,0-59.93,21.57-110.25,64.11-149.57,4.77-4.41,7.19-10.82,7.19-19.06,0-25.67-24.99-69.69-71.31-100.71-27.7-18.55-84.34-45.48-152.38-17.47-27.27,11.23-39.97,27.91-39.97,52.5,0,18.72,6.88,40.06,14.85,64.77,9.8,30.41,20.91,64.88,20.91,101.96,0,28.87-6.66,55.39-20.35,81.07-42.24,79.18-119.28,81.49-181.69,74.66-24.27-2.66-43.48,1.66-55.55,12.48-8.53,7.64-13.03,18.05-13.03,30.11,0,22.85,17.74,51.36,51.64,61.64,31.92,9.68,60.92-13.26,94.51-39.83,37.88-29.96,80.81-63.91,138.09-57.32,28.4,3.27,55.65,13.64,72.9,27.74,13.08,10.69,14.25,20.14,15.48,30.15,.94,7.64,1.91,15.54,7.79,24.81,4.48,7.07,12.12,9.29,20.21,11.64,5.57,1.62,11.34,3.3,16.06,6.7,2.59,1.87,3.15,5.11,3.75,8.54,.79,4.53,1.68,9.67,7.54,12.39,4.08,1.9,8.88-.6,13.52-3.02,3.87-2.02,7.86-4.1,11.19-3.47,2.66,.5,6.94,3.33,11.88,6.61h0Z"/><path class="g" d="M926.38,722.1c-9.28-10.27-17.42-26.51-26.84-45.33-6.58-13.14-22.74-30.78-35.96-29.72-7.22,.57-12.63,6.38-16.06,17.26-1.35,4.28-2.01,8.96-2.01,14.32,0,13.94,4.62,29.62,8.71,43.46,1.86,6.32,3.63,12.3,4.86,17.74,10.4,45.79,16.67,73.44,16.68,98.2,0,21.93-4.91,41.16-16.96,66.38-11.59,24.27-22.48,41.84-31.24,55.98-12.88,20.79-18.57,30.5-18.57,42.79,0,5.73,1.28,12.58,3.9,20.8h1.19c-2.64-8.24-3.96-15.1-3.96-20.8,0-11.98,5.64-21.59,18.42-42.21,8.76-14.14,19.66-31.74,31.28-56.07,12.13-25.38,17.07-44.76,17.07-66.87,0-24.9-6.29-52.59-16.7-98.45-1.25-5.48-3.01-11.47-4.88-17.82-4.06-13.77-8.66-29.37-8.66-43.14,0-5.24,.64-9.81,1.95-13.97,3.28-10.39,8.34-15.94,15.06-16.47,12.72-1.01,28.41,16.25,34.85,29.1,9.46,18.89,17.63,35.2,27.02,45.58,28.31,31.31,65.28,26.26,98.46,16.77v-1.19c-32.95,9.46-69.66,14.57-97.62-16.34h0Z"/><path class="g" d="M767.29,30.83c1.87-2.92,2.9-7.67,2.9-13.37,0-5.08-.85-11.08-2.8-17.48h-1.66c2,6.4,2.87,12.41,2.87,17.48,0,5.32-.97,9.88-2.65,12.51-8.54,13.37-23.62,19.28-39.58,25.53-13.77,5.4-28.02,10.98-38.06,21.82l-.47,.03v.47c-10.98,12.46-16.33,29.25-16.33,51.32s5.17,44.16,9.32,62.36c2.84,12.43,5.29,23.17,5.29,30.07,0,4.06-.84,6.53-2.55,7.54-2.29,1.36-6.57,.33-12.73-3.04-28.72-15.72-97.18-47.48-125.51-45.28-22.36,1.73-45.45,12.47-67.77,22.86-32.33,15.04-65.77,30.59-97.7,19.27-36.44-12.92-101.57-69.83-107.1-110.33-.32-2.36-.48-4.91-.48-7.58,0-26.34,15.7-64.88,38.44-105.05h-1.7c-22.69,40.18-38.33,78.69-38.33,105.05,0,2.74,.17,5.36,.5,7.79,5.59,41.01,71.36,98.58,108.14,111.62,32.55,11.54,66.28-4.16,98.91-19.33,22.2-10.33,45.15-21.01,67.22-22.72,25.26-1.96,89.3,25.75,124.63,45.09,6.88,3.76,11.42,4.72,14.31,3.01,2.24-1.33,3.33-4.24,3.33-8.91,0-7.09-2.47-17.9-5.33-30.43-4.13-18.12-9.28-40.67-9.28-62,0-21.81,5.28-38.33,16.15-50.5h0c9.8-10.72,23.98-16.28,37.69-21.65,16.21-6.35,31.52-12.35,40.34-26.16h0Z"/><path class="g" d="M871.2,44.12c13.71,6.01,26.66,11.69,37.87,18.89,65.24,41.95,76.24,88.71,87.88,138.21,.89,3.77,1.73,7.73,2.54,11.56,3.51,16.49,7.15,33.54,16.16,47.44,2.82,4.35,5.61,7.67,8.35,9.99v-1.49c-2.41-2.2-4.88-5.24-7.39-9.11-8.9-13.72-12.51-30.67-16.01-47.06-.82-3.83-1.66-7.8-2.55-11.59-11.69-49.73-22.74-96.71-88.37-138.9-11.28-7.25-24.27-12.95-38.05-18.99-21.85-9.58-46.6-20.45-54.88-35.46-1.01-2.67-1.89-5.19-2.67-7.61h-1.19c.82,2.56,1.75,5.25,2.83,8.09,8.49,15.43,33.44,26.37,55.48,36.04h0Z"/><path class="g" d="M999.31,280.69c-11.96-26.83-17.67-51.1-23.19-74.57-11.08-47.14-20.66-87.85-78.63-125.12-9.77-6.28-21.97-11.64-34.89-17.3-26.99-11.84-54.89-24.08-66.42-46.8-2.37-6.12-4.21-11.71-5.58-16.92h-1.63c1.41,5.42,3.31,11.23,5.8,17.65,11.77,23.22,39.94,35.58,67.19,47.53,12.86,5.64,25,10.97,34.66,17.18,57.43,36.92,66.93,77.35,77.94,124.15,5.54,23.54,11.26,47.88,23.29,74.85,7.82,17.54,16.88,29.27,26.15,34.12v-1.78c-8.67-4.89-17.21-16.22-24.69-33h0Z"/><path class="g" d="M944.86,275.43c-13.34,4.22-23.31,22.68-29.61,54.87-4.15,21.2-6.26,42.87-6.26,64.4,0,31.65,4.52,63.69,13.45,95.25,1.21,4.27,2.52,8.56,3.91,12.75,18.08,54.45,48.21,85.88,97.64,99.99v-1.67c-48.62-14.04-78.3-45.12-96.13-98.82-1.38-4.17-2.69-8.43-3.89-12.68-8.89-31.41-13.39-63.31-13.39-94.81,0-21.43,2.1-42.99,6.23-64.09,6.18-31.58,15.78-49.63,28.53-53.66,9.76-3.09,21.68,2.03,35.41,15.2,14.2,13.62,28.56,27.39,43.24,39.77v-2.1c-14.29-12.12-28.29-25.54-42.14-38.82-14.19-13.61-26.64-18.85-37-15.57h0Z"/><path class="g" d="M784.17,392.63c-2.41-4.35-3.59-8.81-3.59-13.63,0-8.84,4.06-17.62,7.98-26.11l.93-2.01c2.24-4.88,3.33-9.8,3.33-15.05,0-6.4-1.59-12.63-3.27-19.24-.42-1.66-.85-3.35-1.27-5.08-.89-3.71-1.32-7.29-1.32-10.95,0-11.05,4.21-21.14,8.76-30.39,2.31-4.7,3.44-9.26,3.44-13.95,0-6.88-2.39-13.03-4.91-19.55-1.87-4.82-3.8-9.81-4.82-15.31-.92-5-1.5-9.95-2.07-14.74-1.46-12.37-2.84-24.05-9.56-35.92-.81-1.42-1.61-2.77-2.39-4.07-3.35-5.61-6.25-10.46-6.25-16.79,0-1.96,.27-3.98,.82-6.15,1.53-6.04,5.43-10.2,11.6-12.37,21.83-7.66,65.86,10.97,79.39,21.21,9.8,7.41,15.29,16.95,15.47,26.87v.51c0,9.87-5.39,19.39-15.17,26.79-4.93,3.73-10.9,6.58-17.22,9.6-13.24,6.33-26.93,12.88-30.5,28.02-.44,1.88-.66,3.58-.66,5.17,0,5.55,2.63,8.74,5.67,12.44,1.83,2.22,3.72,4.52,5.3,7.61,1.96,3.85,2.92,7.63,2.92,11.56,0,8.27-4.19,15.68-8.62,23.51-4.41,7.79-8.96,15.84-8.96,24.79v.57c.1,4.39,1.01,8.09,1.89,11.67,.82,3.32,1.59,6.45,1.59,9.77s-.75,6.36-2.38,9.65c-.68,1.38-1.41,2.69-2.12,3.94-1.99,3.54-3.87,6.89-3.87,10.79,0,2.06,.51,4.14,1.57,6.34,.83,1.74,2.81,3.73,4.9,5.83,3.33,3.35,7.1,7.15,7.1,10.72,0,.85-.21,1.65-.63,2.42-1.54,2.8-4.35,4.22-8.35,4.23-9.41,.01-22.07-7.92-24.73-12.72h0Zm34.07,9.04c.51-.94,.78-1.94,.78-2.97,0-4.04-3.95-8.02-7.43-11.53-2.02-2.03-3.93-3.96-4.68-5.52-.98-2.05-1.46-3.96-1.46-5.85,0-3.61,1.73-6.68,3.73-10.24,.72-1.27,1.46-2.59,2.16-4,1.68-3.4,2.49-6.72,2.49-10.15s-.79-6.65-1.62-10.04c-.86-3.52-1.76-7.16-1.85-11.42v-.54c0-8.65,4.47-16.57,8.8-24.23,4.31-7.62,8.77-15.5,8.77-24.07,0-4.12-.99-8.07-3.04-12.08-1.64-3.21-3.65-5.66-5.43-7.82-2.91-3.53-5.41-6.58-5.41-11.72,0-1.5,.21-3.11,.63-4.91,3.45-14.62,16.89-21.04,29.89-27.26,6.09-2.91,12.39-5.93,17.41-9.72,10.08-7.62,15.63-17.45,15.63-27.69v-.53c-.19-10.27-5.85-20.13-15.93-27.75-13.68-10.35-58.27-29.16-80.46-21.37-6.55,2.3-10.7,6.73-12.32,13.16-.57,2.27-.85,4.37-.85,6.43,0,6.65,2.97,11.62,6.41,17.38,.77,1.3,1.58,2.64,2.37,4.05,6.61,11.67,7.97,23.24,9.42,35.49,.57,4.81,1.15,9.78,2.08,14.81,1.03,5.61,2.99,10.65,4.88,15.52,2.48,6.42,4.83,12.48,4.83,19.14,0,4.51-1.09,8.91-3.32,13.45-4.61,9.37-8.88,19.6-8.88,30.89,0,3.74,.44,7.41,1.35,11.21,.42,1.73,.85,3.43,1.27,5.1,1.66,6.53,3.23,12.7,3.23,18.96,0,5.08-1.06,9.85-3.23,14.58l-.93,2.01c-3.98,8.6-8.08,17.49-8.08,26.59,0,5.02,1.22,9.66,3.73,14.18,3.16,5.7,16.46,13.32,25.73,13.31,4.38,0,7.61-1.67,9.34-4.82h0Z"/><path class="g" d="M885.89,538.69c-5.8-9.34-13.75-22.13-25.13-34.89-17.25-19.34-38.97-35.25-64.56-47.28-16.1-7.57-33.59-12.47-51.97-14.59-64.24-7.39-112.08,30.46-150.53,60.87-29.86,23.62-55.65,44.01-79.09,36.9-26.02-7.89-39.63-28.83-39.63-45.44,0-7.22,2.49-13.11,7.4-17.51,8.27-7.41,23.33-10.34,42.4-8.25,62.43,6.84,150.93,5.62,198.47-83.52,15.04-28.19,22.35-57.31,22.35-89.03,0-39.75-11.55-75.56-21.74-107.19-7.52-23.34-14.02-43.49-14.02-59.54,0-12.83,3.57-26.18,29.48-36.85,60.77-25.02,111.62-.79,136.52,15.89,31.31,20.97,56.79,56.29,56.79,78.74,0,6-1.76,10.88-5.24,14.51-24.59,25.69-40.23,49.59-49.2,75.22-7.72,22.06-11.02,46.39-11.02,81.34,0,37.7,6.11,76.95,17.19,110.52,13.2,39.97,14.23,65.57,14.23,72.46,0,3.25-.2,5.81-.56,7.21-.54,2.1-1.2,3.22-1.98,3.34-1.97,.3-5.42-5.25-10.19-12.93h0Zm12.83,9.76c.38-1.45,.58-4.08,.58-7.38,0-6.92-1.03-32.61-14.26-72.68-11.07-33.5-17.16-72.68-17.16-110.3,0-61.94,9.28-103.09,60.03-156.09,3.6-3.76,5.43-8.81,5.43-14.98,0-23.04-25.08-57.87-57.1-79.31-25.01-16.75-76.09-41.09-137.15-15.95-26.29,10.82-29.91,24.41-29.91,37.48,0,16.16,6.51,36.36,14.06,59.78,10.17,31.55,21.7,67.3,21.7,106.95,0,31.6-7.28,60.62-22.27,88.71-47.35,88.77-135.56,89.97-197.79,83.16-19.28-2.11-34.52,.89-42.94,8.43-5.06,4.54-7.63,10.6-7.63,18.02,0,16.86,13.78,38.11,40.11,46.1,23.79,7.21,49.7-13.28,79.72-37.03,38.35-30.33,86.07-68.08,150.02-60.72,18.32,2.11,35.73,7,51.76,14.53,25.5,11.99,47.15,27.84,64.34,47.11,11.34,12.72,19.27,25.48,25.06,34.8,5.27,8.49,8.45,13.61,10.87,13.24,1.09-.17,1.9-1.39,2.53-3.84h0Z"/><path class="g" d="M525.34,484.8c12.41,1.36,21.43,1.03,28.01,.79,10.68-.4,14.68-.55,17.16,6.59,.58,1.66,.61,3.39,.08,5.13-1.76,5.85-11.43,13.89-24.07,20.01-13.41,6.49-25.63,8.7-32.68,5.9-10.74-4.26-22.7-17.19-22.7-28.94,0-3.22,.98-4.54,2.03-5.48,3.71-3.33,15.96-5.77,32.17-3.99h0Zm-35.34,9.47c0,12.21,12.35,25.61,23.42,30,7.34,2.91,19.9,.69,33.59-5.93,12.91-6.24,22.82-14.56,24.67-20.7,.28-.94,.42-1.88,.42-2.8,0-1.02-.18-2.05-.52-3.04-2.76-7.93-7.62-7.75-18.28-7.35-6.55,.24-15.52,.58-27.84-.78-16.54-1.82-29.15,.78-33.05,4.27-1.25,1.12-2.41,2.66-2.41,6.33h0Z"/><path class="g" d="M812.75,217.52c-.45-2.33-.87-4.55-1.27-6.7-2.34-12.34-4.18-22.09-8.19-36.57-.5-1.79-.75-3.36-.75-4.65,0-1.71,.44-2.95,1.31-3.67,1.16-.98,2.93-.91,4.2-.68,12.52,2.23,19.67,4.13,28.88,9.55,2.69,1.58,4.49,3.09,4.49,5.27,0,1.81-1.17,4.08-3.59,6.94-4.71,5.57-9.88,13.51-14.94,22.96-.49,.92-.93,1.7-1.33,2.42-1.05,1.88-1.88,3.36-2.92,5.93-.69,1.71-1.77,2.62-2.96,2.51-1.34-.13-2.57-1.52-2.91-3.3h0Zm7.09,1.28c1-2.49,1.82-3.94,2.84-5.78,.41-.72,.85-1.51,1.35-2.44,5.03-9.37,10.14-17.23,14.79-22.73,2.63-3.11,3.91-5.66,3.91-7.79,0-3.12-2.65-4.94-5.13-6.41-9.38-5.51-16.63-7.45-29.31-9.71-1.55-.28-3.73-.33-5.28,.97-1.96,1.64-2.3,4.9-.98,9.68,4,14.43,5.84,24.15,8.17,36.47,.41,2.15,.83,4.37,1.27,6.7,.46,2.38,2.13,4.17,4.07,4.36,.86,.08,3-.08,4.3-3.32h0Z"/><path class="g" d="M822.17,429.64c-9.14-4.26-21.66-10.1-38.18-15.25-9.16-2.85-17.15-3.22-22.99-3.48-7.12-.32-11.04-.5-11.04-4.48,0-2.14,1.11-5.42,3.51-10.34,7.44-15.27,22.81-59.58,22.81-99.08,0-.78,0-1.56-.02-2.34-.75-46.83-13.41-89.99-22.66-121.5-4.92-16.78-8.81-30.02-9.78-39.53-.57-5.64,2.6-10.23,9.41-13.61,24.13-12,85.44-4.64,117.5,19.61,18.23,13.79,28.69,28.53,28.69,40.44,0,5.21-2.01,9.81-5.96,13.66-22.32,21.75-47.38,67.18-53.02,119.68-1.13,10.49-1.7,22.82-1.7,36.66,0,35.46,3.7,68.53,3.86,69.92,.36,3.18,.54,5.73,.54,7.8,0,4.11-.7,6.48-2.21,7.44-2.85,1.82-8.84-.97-18.75-5.59h0Zm21.65-1.85c0-2.09-.18-4.67-.54-7.88-.16-1.39-3.86-34.42-3.86-69.84,0-13.81,.57-26.12,1.7-36.58,5.63-52.32,30.58-97.6,52.82-119.26,4.09-3.98,6.17-8.74,6.17-14.15,0-12.12-10.55-27.06-28.96-40.98-32.23-24.39-93.92-31.76-118.22-19.68-6.45,3.21-9.86,7.69-9.86,12.96,0,.44,.02,.88,.07,1.34,.98,9.57,4.87,22.84,9.8,39.65,9.23,31.48,21.88,74.58,22.63,121.32,.66,39.94-15.16,85.58-22.73,101.11-2.47,5.07-3.58,8.35-3.58,10.63,0,4.64,4.4,4.83,11.7,5.16,5.79,.26,13.74,.62,22.81,3.45,16.48,5.14,28.98,10.96,38.1,15.21,10.13,4.72,16.24,7.57,19.41,5.55,1.75-1.12,2.53-3.59,2.53-8.01h0Z"/><path class="g" d="M854.68,474.78c-23.37-23.92-48.73-39.6-75.38-46.59-21.43-5.62-37.98-4.01-45.04-3.32-1.54,.15-2.66,.26-3.32,.25-5.26-.06-5.87-2.29-5.87-3.95,0-3.75,3.64-10.09,7.86-17.44,2.22-3.87,4.74-8.26,7.05-12.83,14.92-29.48,21.57-58.76,21.57-94.94,0-42.26-11.95-79.33-22.5-112.05-7.11-22.08-13.26-41.14-13.26-54.68,0-6.58,0-14.04,19.62-22.12,49.87-20.53,91.16-.41,115.83,11.62,2.04,.99,3.97,1.93,5.79,2.8,19.86,9.42,52.8,41.09,52.8,58.19,0,2.65-.82,4.82-2.44,6.47-28.29,28.77-46.82,58.55-56.64,91.03-8.76,28.95-9.49,55.83-9.49,80.87,0,44.24,5.39,81.26,16.47,113.2,.95,2.75,1.48,5.39,1.48,7.43,0,1.54-.3,3.5-1.72,4.07-1.33,.54-4.76,.22-12.8-8.01h0Zm15.2,3.93c0-2.11-.54-4.83-1.52-7.65-11.05-31.87-16.43-68.82-16.43-112.98,0-55,5.04-109.5,65.94-171.42,1.75-1.78,2.63-4.11,2.63-6.95h0c0-17.32-33.18-49.32-53.19-58.81-1.82-.86-3.75-1.8-5.79-2.8-24.77-12.07-66.24-32.28-116.39-11.64-20.04,8.25-20.04,15.95-20.04,22.75,0,13.65,6.16,32.76,13.29,54.9,10.53,32.66,22.47,69.68,22.47,111.83,0,36.07-6.63,65.25-21.49,94.63-2.3,4.55-4.82,8.93-7.03,12.8-4.44,7.73-7.95,13.84-7.95,17.78,0,3.07,2.14,4.59,6.55,4.64,.7,0,1.83-.1,3.4-.25,43.2-4.21,83.53,12.52,119.87,49.71,6.35,6.49,10.9,9.24,13.55,8.16,1.4-.57,2.14-2.2,2.14-4.71h0Z"/><path class="g" d="M-.21,601.02v1.67c12.27,3.5,25.7,5.95,40.46,7.4,25.67,2.53,59.28,4.75,91.69-.51,23.62-3.83,34.15-11.52,34.15-24.93h0c0-8.57-4.15-18.52-8.96-30.04-3.34-8.01-6.79-16.28-9.3-25.13-.24-.85-.47-1.69-.7-2.55-6.75-25.2-7.71-53.59-2.83-83.72,1.31-8.09,3.57-16.28,5.76-24.2,3.19-11.55,6.49-23.5,7.02-35.63,.29-6.58-.38-11.26-2.03-14.57-4.82-9.68-16.86-4.97-29.61,.01-7.54,2.94-15.34,5.99-22.33,6.49-37.14,2.66-70.99-18.09-103.33-45.51v2.1c32.28,27.21,66.14,47.67,103.44,45,7.24-.52,15.15-3.61,22.8-6.6,12.58-4.91,23.44-9.15,27.61-.78,1.51,3.02,2.13,7.6,1.86,13.79-.53,11.95-3.8,23.81-6.97,35.27-2.2,7.96-4.48,16.2-5.8,24.37-4.91,30.35-3.95,58.97,2.87,84.39,.23,.87,.46,1.71,.71,2.57,2.53,8.94,6,17.26,9.36,25.31,4.74,11.36,8.83,21.18,8.83,29.42,0,12.47-10.12,19.68-32.81,23.36-32.22,5.23-65.7,3.01-91.27,.49-14.84-1.46-28.32-3.94-40.62-7.49H-.21Z"/><path class="g" d="M713.29,574.42c1.04,.81,1.54,1.84,1.54,3.16,0,3.63-3.65,9.06-8.28,15.93-8.16,12.13-19.34,28.75-19.34,48.83,0,2.49,.18,5,.52,7.46,.81,5.79,1.16,9.25,1.16,11.58,0,2.19-.32,3.44-.94,3.71-1.78,.77-7.39-4.53-15.9-12.55l-2.58-2.43c-8.91-8.39-17.68-13.21-24.08-16.74-5.77-3.18-9.59-5.28-9.59-7.8,0-.98,.57-2.09,1.76-3.39,18.51-20.41,61.38-58.94,75.73-47.77h0Zm-76.57,47c-1.38,1.52-2.05,2.88-2.05,4.16,0,3.19,4.05,5.42,10.18,8.79,6.35,3.5,15.04,8.28,23.85,16.57l2.58,2.43c10.07,9.5,14.67,13.83,17.13,12.77,1.12-.48,1.62-1.95,1.62-4.75,0-2.38-.35-5.9-1.17-11.74-.34-2.41-.51-4.87-.51-7.3,0-19.74,11.07-36.19,19.15-48.19,4.73-7.03,8.47-12.59,8.47-16.57,0-1.67-.67-3.04-1.98-4.06-16.18-12.6-62.37,31.47-77.27,47.9h0Z"/><path class="g" d="M693.56,589.7c.96-.07,1.32,.11,1.44,.23,.04,.04,.17,.16,.17,.57h0c0,1.86-2.46,5.96-5.32,10.72-5.52,9.21-13.09,21.82-13.3,33.98-.03,1.81-.74,2.61-2.31,2.59-5.32-.05-16.95-9.58-16.95-16.68,0-.81,.17-1.57,.5-2.23,4.54-9.08,25.85-28.41,35.77-29.17h0Zm-37.86,31.41c0,7.96,12.56,18.22,18.52,18.28,2.44,.02,3.87-1.49,3.92-4.16,.21-11.74,7.65-24.14,13.08-33.19,3.22-5.37,5.55-9.25,5.55-11.54h0c0-.73-.23-1.32-.68-1.74-.57-.53-1.43-.74-2.64-.64-10.94,.84-32.86,21.62-37.07,30.05-.44,.89-.67,1.88-.67,2.94h0Z"/><path class="g" d="M397.22,691.6c-7.95,14.42-15.17,21.68-22.06,22.2-9.06,.68-17.26-10.02-26.75-22.41-3.11-4.06-6.33-8.26-9.8-12.37-21.78-25.77-25.61-36.78-25.61-50.39,0-3.92,.34-8.02,.73-12.77l.18-2.23c4.17-51.61,24.65-89.12,28.2-91.06,.72-.39,1.08-.31,1.29-.21,1.08,.49,1.7,3.35,2.73,8.08,2.32,10.65,6.63,30.48,23.22,60.22,16.45,29.47,47.4,48.46,70.77,54.21,5.69,1.4,8.46,2.83,8.46,4.38h0c0,2.22-5.37,5.22-12.17,9-11.96,6.67-30.03,16.73-39.19,33.34h0Zm52.04-42.34h0c0-1.96-2.77-3.52-8.98-5.04-23.23-5.71-53.99-24.59-70.34-53.88-16.55-29.65-20.84-49.41-23.15-60.03-1.14-5.27-1.72-7.92-3.11-8.55-.53-.25-1.15-.17-1.9,.24-3.74,2.04-24.29,38.78-28.56,91.6l-.18,2.23c-.39,4.76-.73,8.87-.73,12.82,0,13.78,3.86,24.9,25.77,50.83,3.46,4.09,6.68,8.29,9.78,12.34,9.62,12.55,17.92,23.38,27.35,22.67,7.24-.54,14.42-7.71,22.61-22.56,9.06-16.43,27.03-26.45,38.93-33.07,7.53-4.2,12.51-6.97,12.51-9.6h0Z"/><path class="g" d="M403.54,715.51c-11.36,16.23-20.71,23.89-29.4,24.1-10.97,.27-19.87-11.19-31.13-25.7-5.09-6.56-10.36-13.34-16.5-19.94-24.8-26.67-32.36-40.03-32.36-57.2,0-3.08,.25-6.5,.75-10.44,4.49-35.23,15.24-71.92,32.86-112.2,4.18-9.55,9.26-20.85,15.26-32.16,.67-1.27,1.52-3.22,2.51-5.48,3.26-7.5,8.2-18.82,13.25-20.23,1.42-.4,2.51-.31,3.24,.24,.96,.73,1.17,2.2,1.17,3.3,0,2.38-.91,5.26-1.81,6.88-1.17,2.11-3.35,3.65-5.45,5.14-3.09,2.19-6.29,4.45-6.64,8.6-.38,4.28,1.81,5.72,3.91,7.13,1.41,.94,2.74,1.84,3.41,3.55,.41,1.04,.61,1.99,.61,2.91,0,2.44-1.43,4.29-2.95,6.25-1.46,1.89-2.97,3.84-3.45,6.53-.1,.53-.14,1.09-.14,1.65,0,4.71,3.35,9.68,6.58,14.48,2.54,3.76,4.93,7.32,5.83,10.73,4.63,17.56,10.45,32.55,17.79,45.82,23.82,43.06,68.4,55.93,99.87,61.87,4.65,.88,6.91,2.07,6.91,3.63,0,3.06-7.85,7.96-18.71,14.75-18.65,11.65-46.82,29.25-65.41,55.8h0Zm84.8-70.55c0-1.98-2.37-3.34-7.47-4.3-31.33-5.91-75.72-18.72-99.4-61.52-7.32-13.23-13.12-28.16-17.73-45.67-.93-3.52-3.47-7.29-5.92-10.93-3.18-4.72-6.46-9.6-6.46-14.1,0-.52,.04-1.04,.13-1.53,.45-2.53,1.91-4.41,3.32-6.23,1.59-2.05,3.09-3.99,3.09-6.67,0-1.01-.21-2.05-.66-3.16-.76-1.92-2.24-2.91-3.67-3.87-2.03-1.36-3.94-2.64-3.61-6.5,.33-3.83,3.25-5.91,6.35-8.1,2.17-1.53,4.41-3.12,5.66-5.36,.91-1.64,1.9-4.6,1.9-7.21,0-1.83-.48-3.12-1.43-3.84-.91-.69-2.2-.81-3.84-.35-5.36,1.49-10.38,13-13.69,20.61-.98,2.25-1.82,4.19-2.49,5.44-6,11.33-11.09,22.64-15.28,32.21-17.65,40.33-28.42,77.09-32.92,112.38-.51,3.97-.75,7.42-.75,10.53,0,17.37,7.6,30.85,32.54,57.66,6.12,6.58,11.38,13.35,16.46,19.9,11.38,14.66,20.38,26.25,31.69,25.97,8.93-.22,18.44-7.97,29.94-24.39,18.51-26.44,46.62-43.99,65.22-55.61,11.46-7.16,19.03-11.89,19.03-15.33h0Z"/><path class="g" d="M739.39,629.8c-4.23,9.29-6.28,20.33-6.28,33.76,0,24.88,7.33,52.99,13.23,75.58,4.18,16.04,7.8,29.89,7.8,38.54h0c0,4.66-1.04,7.53-3.18,8.78-3,1.76-8.31,.46-16.24-3.96-18.85-10.54-35.77-29.02-52.15-46.89-13.44-14.68-26.14-28.54-39.62-38.05-27.53-19.43-58.91-30.89-90.76-33.16-36.42-2.59-71.05,6.77-102.93,27.81-11.34,7.48-20.87,21.39-30.09,34.83-17.17,25.05-33.4,48.72-59.58,31.2-13.35-8.93-18.35-17.06-24.14-26.47-3.65-5.93-7.78-12.65-14.58-20.39-5.9-6.71-11.67-12.1-17.25-17.31-14.37-13.43-25.73-24.04-25.73-46.22,0-3.49,.28-7.28,.85-11.26,7.62-53.76,20.36-113.21,61.6-183.58,54.29-92.63,104.99-155.28,189.86-181.32,39.46-12.11,83.06-7.62,108.49,11.17,14.87,10.99,22.73,26.31,22.73,44.32,0,9.94-2.36,20.79-7.03,32.23-8.68,21.3-28.55,34.33-60.72,39.85-28.13,4.82-61.99,3.26-91.86,1.89-8.41-.39-16.36-.75-24.06-.98-33.31-1-60.9,8.16-79.77,26.47-17.19,16.68-26.66,40.67-26.66,67.55,0,35.71,16.03,71.87,43.97,99.23,17.07,16.71,34.67,27.02,53.83,31.54,17.11,4.03,35.09,3.32,54.96-2.19,36.93-10.24,73.68-34.98,112.59-61.18,13.59-9.15,27.64-18.61,41.54-27.28,32.16-20.05,54.81-16.58,68.15-10.13,14.58,7.04,25.12,21.49,26.87,36.82,.2,1.73,.3,3.46,.3,5.15,0,16-8.87,27.4-18.25,39.47-5.78,7.43-11.75,15.11-15.9,24.22h0Zm34.53-68.91c-1.77-15.56-12.47-30.22-27.25-37.36-13.49-6.52-36.39-10.04-68.81,10.17-13.92,8.68-27.97,18.14-41.56,27.29-38.86,26.17-75.56,50.89-112.39,61.09-41.65,11.54-76.01,2.27-108.13-29.17-27.81-27.23-43.77-63.22-43.77-98.74,0-26.69,9.39-50.51,26.45-67.06,18.74-18.19,46.16-27.27,79.28-26.28,7.69,.23,15.64,.6,24.05,.98,29.9,1.37,63.8,2.94,92-1.9,32.43-5.55,52.46-18.72,61.24-40.26,4.7-11.53,7.08-22.46,7.08-32.49,0-18.23-7.96-33.75-23.01-44.87-25.6-18.91-69.44-23.45-109.1-11.28-85.07,26.11-135.87,88.86-190.24,181.63-41.3,70.47-54.06,130-61.68,183.83-.57,4.01-.86,7.83-.86,11.36,0,22.48,11.45,33.18,25.94,46.72,5.57,5.2,11.32,10.58,17.2,17.26,6.76,7.69,10.88,14.39,14.52,20.29,5.83,9.48,10.86,17.67,24.34,26.68,26.74,17.89,43.15-6.04,60.52-31.38,9.18-13.39,18.67-27.24,29.9-34.65,70.63-46.61,145.96-27.8,192.92,5.34,13.43,9.47,26.1,23.31,39.52,37.95,16.41,17.91,33.37,36.43,52.31,47.02,8.15,4.56,13.69,5.86,16.92,3.96,2.36-1.39,3.51-4.45,3.51-9.36h0c0-8.75-3.62-22.63-7.82-38.71-5.88-22.55-13.2-50.62-13.2-75.41,0-13.14,2.09-24.41,6.22-33.47,4.11-9.04,10.06-16.69,15.81-24.08,9.46-12.17,18.4-23.65,18.4-39.89,0-1.71-.1-3.46-.3-5.22h0Z"/><path class="g" d="M722.08,629.4c-3.29,6.06-4.89,14.42-4.89,25.57,0,14.17,2.62,30.48,4.92,44.87,1.9,11.81,3.53,22.02,3.53,29.31h0c0,4.5-.63,7.44-1.94,9.01-.02,.02-.06,.07-.22,.08-3.58,.28-24.68-18.24-47.02-37.85-28.37-24.91-60.54-53.14-69.63-54.38-5.07-.69-8.93,1.43-12.66,3.48-4,2.2-7.78,4.27-12.95,3.14-4-.87-6.24-3.24-8.61-5.75-3.1-3.28-6.3-6.66-13.62-6.76-2.87-.04-7.74,2.07-13.37,4.5-5.23,2.26-11.15,4.82-16.25,5.93-5.99,1.3-9.83,.37-11.74-2.84-.4-.67-.6-1.34-.6-2,0-7.86,27.82-13.83,42.77-17.03,5.02-1.08,8.65-1.85,10.05-2.41,27.35-10.84,55.59-32.94,82.03-55.22,21.05-17.73,53.49-37.49,75.66-34.79,7.44,.9,13.36,4.31,17.59,10.11,3.36,4.62,5.06,10.25,5.06,16.74,0,17.69-12.22,38.73-22.05,55.63-2.22,3.82-4.31,7.42-6.08,10.67h0Zm23.61-83.43c-4.34-5.96-10.42-9.46-18.06-10.39-22.38-2.72-55.03,17.13-76.18,34.95-26.4,22.24-54.58,44.3-81.84,55.1-1.35,.53-5.14,1.35-9.94,2.38-16.2,3.47-43.31,9.28-43.31,17.7,0,.78,.23,1.57,.7,2.35,2.08,3.5,6.16,4.53,12.47,3.16,5.16-1.12,11.12-3.7,16.38-5.97,5.56-2.41,10.37-4.48,13.09-4.45,7.02,.09,10.13,3.37,13.13,6.54,2.34,2.47,4.76,5.03,8.96,5.95,5.42,1.19,9.49-1.05,13.43-3.21,3.63-1.99,7.39-4.06,12.24-3.4,8.89,1.21,40.98,29.37,69.28,54.22,23.42,20.56,43.65,38.32,47.52,38.02,.3-.02,.53-.13,.69-.33,1.41-1.7,2.1-4.79,2.1-9.45h0c0-7.35-1.64-17.58-3.54-29.42-2.3-14.36-4.91-30.64-4.91-44.76,0-11.03,1.57-19.29,4.8-25.24,1.76-3.24,3.85-6.84,6.07-10.65,9.87-16.97,22.14-38.1,22.14-55.97,0-6.63-1.75-12.4-5.19-17.14h0Z"/><path class="g" d="M732.22,573.36h0c0,14.08-10.14,32.15-19.62,44.36-6.89,8.87-10.23,19.68-10.23,33.08,0,9.79,1.75,19.32,3.29,27.73,1.18,6.42,2.2,11.97,2.2,16.33,0,3.73-.74,6.16-2.34,7.65-.7,.66-1.45,.95-2.3,.9-3.28-.2-7.77-5.56-14-12.99-15.06-17.98-40.27-48.08-86.88-53.08-5.57-.6-8.05-1.52-8.05-2.98,0-2.48,6.26-7.03,16.64-14.57,11.01-8,27.65-20.08,47.18-37.42,11.24-9.98,40.43-29.93,58.95-27.92,4.95,.54,8.78,2.64,11.4,6.24,2.49,3.43,3.76,7.7,3.76,12.69h0Zm-15.09-19.6c-18.74-2.03-48.16,18.05-59.47,28.09-19.51,17.32-36.13,29.39-47.13,37.38-10.91,7.92-16.93,12.29-16.93,15.12,0,1.94,2.51,3,8.67,3.66,46.34,4.97,71.44,34.93,86.43,52.84,6.57,7.84,10.9,13.02,14.48,13.24,1.03,.06,1.97-.3,2.8-1.09,1.74-1.63,2.55-4.22,2.55-8.15,0-4.42-1.03-9.99-2.21-16.45-1.54-8.38-3.28-17.88-3.28-27.61,0-13.23,3.3-23.92,10.09-32.66,9.56-12.3,19.77-30.53,19.77-44.77h0c0-5.14-1.31-9.55-3.89-13.1-2.74-3.76-6.73-5.95-11.88-6.51h0Z"/><path class="g" d="M463.6,359.49c-.13-.11-.18-.24-.18-.4,0-.31,.19-.92,1.12-2.04,5.32-6.44,68.99-58.91,129.38-43.5,8.91,2.27,13.81,6.86,13.81,12.92h0c0,4.38-2.66,9.28-7.49,13.8-10.89,10.19-35.07,20.25-70.31,17.93-20.85-1.37-38.53,.17-50.24,1.19-8.59,.75-14.8,1.29-16.09,.11h0Zm66.26-.17c35.6,2.35,60.1-7.88,71.16-18.23,5.06-4.74,7.85-9.93,7.85-14.63h0c0-6.63-5.21-11.61-14.67-14.02-60.94-15.55-125.17,37.38-130.53,43.88-1.55,1.88-1.75,3.17-.83,4.01,1.66,1.52,7.09,1.04,16.96,.18,11.67-1.02,29.31-2.56,50.07-1.19h0Z"/><path class="g" d="M129.6,81.8c0,17.79,3.36,37.51,6.92,58.39,4.26,24.94,8.66,50.73,8.66,78.83,0,2.08-.02,4.11-.07,6.05-.04,1.68-.08,3.33-.13,4.95-.12,4.25-.22,8.26-.22,12.13,0,24.21,4.93,39.2,30.96,49.08,16.46,6.24,35.11,13.33,47.13,30.32,3.4,4.81,6.31,9.61,8.87,13.85,5.94,9.83,10.63,17.59,17.11,17.89,5.96,.27,13.12-5.76,23.23-19.53,9.7-13.21,14.41-24.08,14.41-33.23,0-.83-.04-1.65-.11-2.46-1.24-13.29-12.22-22.2-26.12-33.49-6.32-5.13-13.49-10.95-20.3-17.76-29.56-29.55-51.12-65.87-62.35-105.02-4.74-16.51-7.14-32.83-7.14-48.51,0-38.72,14.01-68.59,30.2-93.3h-.82c-16.14,24.72-30.06,54.58-30.06,93.3,0,15.74,2.41,32.12,7.17,48.7,11.26,39.27,32.88,75.68,62.53,105.32,6.84,6.84,14.02,12.67,20.36,17.81,13.78,11.18,24.67,20.02,25.87,33.02,.07,.79,.11,1.59,.11,2.4,0,9-4.67,19.74-14.28,32.83-9.96,13.57-16.95,19.51-22.65,19.25-6.12-.28-10.72-7.9-16.56-17.56-2.57-4.25-5.48-9.07-8.9-13.89-12.15-17.16-30.9-24.28-47.45-30.56-25.66-9.74-30.52-24.54-30.52-48.44,0-3.86,.11-7.87,.22-12.11,.04-1.63,.09-3.28,.13-4.96,.05-1.95,.07-3.99,.07-6.07,0-28.16-4.41-53.97-8.67-78.94-3.56-20.85-6.92-40.54-6.92-58.28,0-10.28,1.14-19.26,3.48-27.47C138.8,36.69,147.07,18.63,156.71-.01h-.77c-9.59,18.57-17.8,36.56-22.83,54.16-2.36,8.27-3.51,17.31-3.51,27.66h0Z"/><path class="g" d="M427.74,378.77c-.24-.22-.36-.5-.36-.89,0-1.42,1.57-4.06,3.92-7.6,15.4-23.09,85.61-84.46,163.79-67.16,14.5,3.21,23.87,13.97,23.87,27.43,0,9.48-4.6,18.95-12.93,26.68-16.07,14.89-43.84,21.64-78.18,19.02-43.98-3.36-71.67,.16-86.55,2.06-7.67,.98-12.3,1.57-13.56,.46h0Zm100.05-1.84c34.53,2.64,62.48-4.18,78.7-19.2,8.48-7.86,13.15-17.51,13.15-27.18h0c0-13.79-9.58-24.82-24.41-28.1-43.33-9.58-82.31,5.25-107.38,19.37-29.46,16.6-50.3,37.85-57.12,48.08-2.49,3.73-4.04,6.37-4.04,7.97,0,.58,.2,1.05,.59,1.4,1.49,1.31,5.7,.78,14.1-.29,14.85-1.89,42.5-5.41,86.41-2.06h0Z"/><path class="g" d="M397.81,397.16c-.23-.19-.33-.44-.33-.81,0-1.84,2.59-5.82,6.88-12.43,37.7-58.07,107.56-113.72,190.54-95.74,26.81,5.8,44.82,24.62,44.82,46.82,0,11.58-5.03,22.43-14.54,31.38-18.53,17.43-52.3,25.58-95.09,22.97-63.89-3.9-101.11,3.14-119,6.52-7.53,1.42-12.07,2.28-13.27,1.29h0Zm132.23-7.13c42.98,2.62,76.93-5.6,95.6-23.16,9.65-9.08,14.76-20.1,14.76-31.87h0c0-22.53-18.23-41.61-45.35-47.48-40.02-8.67-79.42-1.22-117.09,22.16-38.17,23.68-62.85,56.45-74.16,73.88-5.76,8.87-8.16,12.68-6.41,14.14,1.45,1.2,5.59,.42,13.83-1.14,17.86-3.38,55.03-10.41,118.83-6.51h0Z"/><path class="g" d="M369.8,670.35c-13.23-4.76-31.36-46.8-31.36-66.96,0-.71,.02-1.39,.06-2.04,.27-3.95,.55-5.68,.78-6.4,.59,.85,1.57,3.1,2.53,5.28,4.31,9.86,12.34,28.2,29.14,37.09,10.57,5.59,14.69,9.68,14.69,14.59,0,3.99-2.64,8.88-8.81,16.34-1.99,2.4-4.29,3.09-7.03,2.1h0Zm17.43-18.44c0-6.45-6.21-11.06-15.54-15.99-16.3-8.63-24.19-26.64-28.42-36.32-2.14-4.9-2.95-6.74-4.29-6.5-1.13,.2-1.61,1.46-2.07,8.15-1.37,20.16,17.86,65.39,32.34,70.61,3.35,1.21,6.4,.31,8.79-2.59,6.43-7.77,9.18-12.96,9.18-17.36h0Z"/><path class="g" d="M401.85,661.66c-9.41,3.94-13.38,11.91-16.88,18.94-3.08,6.19-5.75,11.53-11.43,12.31-2.16,.3-5.22-1.12-8.84-4.09-14.96-12.27-35.16-46.37-36.04-60.8-.22-3.66-.33-7.33-.33-10.93,0-31.51,8.72-52.52,12.4-52.95,.58-.07,.9,.89,1.04,1.47,5.49,23.17,15.46,51.78,44.09,67.5,23.79,13.06,29.55,22.87,15.98,28.56h0Zm-15.44-29.56c-28.24-15.5-38.1-43.82-43.53-66.76-.52-2.2-1.65-2.41-2.28-2.33-4.6,.54-13.41,22.02-13.41,54.08,0,3.62,.11,7.32,.34,11,.89,14.65,21.33,49.2,36.45,61.61,3.93,3.22,7.2,4.69,9.71,4.34,6.28-.86,9.07-6.45,12.29-12.93,3.41-6.85,7.28-14.62,16.3-18.4,5.25-2.2,7.91-5.09,7.91-8.59,0-5.94-8-13.35-23.79-22.01h0Z"/><path class="g" d="M526.23,340.99c-1.01-.59-1.61-1.22-1.61-1.68,0-.41,.51-.82,.81-1.02,16.75-11.25,45.13-11.49,52.94-7.33,1.06,.56,1.64,1.18,1.64,1.72,0,.71-.92,1.64-2.5,2.54-20.27,11.56-44.15,9.9-51.28,5.76h0Zm55.37-8.3h0c0-1.2-.83-2.26-2.48-3.13-8.31-4.43-37.07-4.35-54.58,7.41-2.27,1.53-1.98,3.74,.89,5.4,7.61,4.42,31.78,6.27,52.87-5.76,2.19-1.25,3.3-2.57,3.3-3.92h0Z"/><path class="g" d="M651.43,184.67c2.34-1.62,3.34-5.59,3.34-13.26,0-4.79-.38-10.52-.82-17.14-.55-8.2-1.17-17.5-1.17-27.11,0-30.43,6.47-50.95,20.4-64.63,9.79-12.72,25.74-19.74,39.82-25.93,17.11-7.53,31.89-14.02,31.89-28.37,0-1.52-.17-3.13-.51-4.78-.23-1.1-.53-2.26-.89-3.47h-1.19c.41,1.29,.73,2.53,.97,3.7,.33,1.57,.49,3.11,.49,4.55,0,13.61-14.46,19.96-31.21,27.33-14.2,6.25-30.3,13.32-40.21,26.21-14.12,13.85-20.69,34.63-20.69,65.38,0,9.65,.62,18.97,1.17,27.19,.44,6.6,.82,12.31,.82,17.07,0,7.06-.91,10.97-2.85,12.32-1.06,.74-2.5,.75-4.41,.04-38.71-14.48-87.71-26.6-102.8-25.43-26.42,2.05-51.39,13.66-75.53,24.89-29.52,13.74-57.41,26.71-80.67,18.47-32.32-11.46-88.44-63.8-92.3-92.15-.18-1.35-.28-2.88-.28-4.53,0-22.07,15.81-60.97,41.94-105.05h-1.32c-26.03,44.03-41.76,82.9-41.76,105.05,0,1.7,.1,3.28,.29,4.69,3.91,28.66,60.47,81.51,93.05,93.06,23.7,8.4,51.79-4.67,81.53-18.51,24.05-11.19,48.92-22.76,75.14-24.79,13.22-1.03,60.79,9.83,102.31,25.36,2.28,.85,4.06,.8,5.46-.17h0Z"/><path class="g" d="M1011.68,76.77c0,1.3,.14,3.5,.32,6.29,.3,4.69,.72,11.1,.72,17.48,0,15.81-2.6,24.09-7.73,24.62-7.71,.79-19.18-17.54-26.76-29.67-3.02-4.82-5.62-8.98-7.32-10.92-13.24-15.11-29.74-29.05-49.04-41.46-12.78-8.21-26.56-14.26-41.15-20.66-10.98-4.82-22.38-12.48-30.26-22.46h-.84c7.96,10.28,19.61,18.16,30.83,23.09,14.56,6.39,28.32,12.42,41.06,20.61,19.25,12.37,35.69,26.28,48.89,41.34,1.67,1.9,4.25,6.04,7.26,10.83,8.13,13.01,19.28,30.82,27.41,29.99,5.61-.58,8.34-8.85,8.34-25.3,0-6.4-.41-12.83-.72-17.53-.18-2.77-.32-4.96-.32-6.24,0-23.95,3.84-45.23,11.63-64.48v-1.84c-8.27,19.75-12.32,41.64-12.32,66.33h0Z"/><path class="g" d="M64.9,516.5c0-3.05-.46-6.59-1.39-10.8-.93-4.2-1.81-8.16-2.3-11.75-.82-6.09-1.16-11.98-1.46-17.23-.34-5.98-1.95-11.35-4.92-16.42-12.39-21.19-37.73-30.04-48.05-32.86-2.48-.68-4.79-1.36-7-2.02v.71c2.16,.65,4.41,1.3,6.82,1.97,10.24,2.8,35.38,11.58,47.64,32.55,2.91,4.98,4.49,10.25,4.83,16.15,.3,5.22,.64,11.13,1.47,17.24,.49,3.62,1.37,7.6,2.31,11.81,.93,4.17,1.38,7.66,1.38,10.66,0,5.03-1.29,8.54-3.95,10.71-3.93,3.22-10.97,3.68-22.15,1.45l-1.83-.37c-15.39-3.04-27.24-8.25-36.5-16.47v.9c9.28,8.07,21.09,13.23,36.37,16.24l1.83,.37c11.4,2.28,18.62,1.77,22.72-1.59,2.83-2.32,4.2-5.99,4.2-11.24h0Z"/><path class="g" d="M145.3,81.8c0,16.46,3.25,35.54,6.7,55.75,4.37,25.58,8.88,52.03,8.88,81.47,0,2.15-.02,4.3-.08,6.42l-.13,5.01c-.11,4.13-.22,8.04-.22,11.7,0,31.88,17.53,33.46,36.08,35.13,10.18,.92,20.7,1.87,29.65,7.47,3.19,2,7.24,7.38,11.51,13.07,9.11,12.12,19.44,25.86,29.1,19.27,4.16-2.84,6.27-6.25,6.27-10.15,0-2.13-.63-4.45-1.89-6.88-5.55-10.75-21.98-22.25-35.18-31.49-7.49-5.24-13.96-9.77-15.44-12.25-1.55-2.6-1.76-5.5-1.76-7.99,0-.96,.03-1.94,.07-2.91,.04-1,.07-2,.07-2.99,0-3.75-.45-7.71-3.7-11.28-3.92-4.31-9.01-4.85-13.92-5.37-4.42-.47-8.59-.92-12.1-3.85-10.6-8.87-18.02-40-22.92-60.59-1.44-6.06-2.69-11.3-3.81-15.2-5.14-17.92-7.75-35.69-7.75-52.84,0-38.05,12.47-68.47,27.4-93.3h-1.34c-14.85,24.84-27.2,55.27-27.2,93.3,0,17.25,2.62,35.13,7.79,53.15,1.11,3.88,2.36,9.1,3.8,15.15,5.23,21.98,12.4,52.08,23.3,61.2,3.78,3.16,8.32,3.65,12.71,4.11,4.92,.52,9.57,1.02,13.2,5.01,2.99,3.29,3.41,7,3.41,10.52,0,.98-.03,1.97-.07,2.95-.03,.99-.07,1.98-.07,2.95,0,2.65,.23,5.74,1.92,8.57,1.61,2.69,7.85,7.06,15.77,12.6,12.41,8.68,29.4,20.58,34.82,31.08,3.3,6.41,2.01,11.47-4.01,15.58-8.77,5.98-18.75-7.3-27.55-19.01-4.53-6.03-8.45-11.24-11.82-13.36-9.17-5.75-19.84-6.71-30.15-7.64-18.81-1.69-35.05-3.15-35.05-33.99,0-3.65,.11-7.55,.22-11.67l.13-5.01c.05-2.13,.08-4.29,.08-6.45,0-29.53-4.52-56.03-8.9-81.67-3.44-20.15-6.68-39.18-6.68-55.55,0-8.75,.94-16.29,2.86-23.03C154.62,40.17,164.05,20.53,174.95-.01h-1.29c-10.81,20.4-20.16,39.93-25.46,58.47-1.96,6.85-2.91,14.49-2.91,23.35h0Z"/><path class="g" d="M40.88,512.11c3.4-1.75,5.12-5.52,5.12-11.22,0-1.48-.12-3.12-.35-4.85-.9-6.67-1.26-12.9-1.58-18.43-.09-1.65-.34-3.17-.76-4.65-.47-1.65-1.13-3.2-2.03-4.74-7.19-12.31-28.38-26.86-41.49-27.34v1.14c12.59,.51,33.61,14.97,40.51,26.77,.85,1.46,1.48,2.92,1.92,4.48,.4,1.41,.63,2.85,.72,4.45,.32,5.51,.68,11.76,1.59,18.48,1.06,7.86-.36,12.95-4.16,14.91-5.15,2.65-15.09-.5-25.93-8.23-5.89-4.2-10.67-9.89-14.64-17.38v2.38c3.85,6.75,8.43,11.97,13.98,15.92,11.36,8.11,21.5,11.21,27.11,8.32h0Z"/><path class="g" d="M621.79,150.31c6.09-4.23,6.77-13.17,7.72-25.54,.1-1.34,.21-2.72,.32-4.14,.32-3.91,.46-8.01,.61-12.34,.69-20.12,1.47-42.92,20.22-63.51l.22-.25c10-11.42,27.62-18.21,43.16-24.21,15.66-6.04,29.18-11.26,29.18-19.54,0-.26-.05-.52-.08-.78h-.69c.03,.26,.08,.53,.08,.78,0,7.82-13.32,12.96-28.74,18.91-15.62,6.02-33.32,12.85-43.42,24.39l-.22,.25c-18.92,20.77-19.71,43.71-20.4,63.94-.15,4.33-.29,8.42-.61,12.31-.12,1.42-.22,2.81-.33,4.15-.93,12.18-1.61,20.99-7.43,25.03-5.51,3.83-15.83,3.29-33.46-1.76-16.31-4.68-31.22-6.41-45.57-5.29-29.25,2.27-55.52,14.49-80.94,26.31-26.53,12.34-51.59,24-68.8,17.9-28.65-10.16-79.22-59.17-81.99-79.47-.06-.45-.13-1.24-.13-2.41,0-16.95,14.11-55.31,44.58-105.05h-.8c-30.38,49.69-44.46,88.05-44.46,105.05,0,1.21,.08,2.03,.14,2.5,2.79,20.45,53.64,69.81,82.44,80.02,17.47,6.19,42.65-5.53,69.33-17.94,25.35-11.79,51.56-23.98,80.69-26.24,14.27-1.11,29.1,.61,45.33,5.27,18.08,5.18,28.26,5.68,34.04,1.67h0Z"/><path class="g" d="M784.89,648.93c-.67,2.27-1,4.98-1,8.29,0,13.97,5.93,35.59,12.8,60.62,8.66,31.56,18.47,67.33,18.47,96.29,0,19.68-4.47,33.7-13.67,42.85-8.42,8.38-21.09,12.59-37.65,12.51-29.03-.14-60.92-39.28-89.07-73.82-16.77-20.59-32.62-40.03-46.36-49.58-28.23-19.62-58.8-36.97-91.03-31.07-18.75,3.43-29.86,14.1-41.62,25.4-6.49,6.23-13.19,12.67-21.47,18.12-7.7,5.07-14.6,7.77-20.68,10.15-11.99,4.69-21.45,8.39-29.82,26.54-2.48,5.38-4.28,9.6-5.73,12.99q-5.62,13.15-19.18,18.33c-2.87,1.09-6.32,2.41-10.54,4.12-16.31,6.61-19.5,11.78-19.5,18.46,0,1.42,.14,2.87,.29,4.41,.16,1.71,.34,3.49,.34,5.41,0,4.23-.71,10.11-6.29,18.16-4.26,6.16-8.13,8.74-11.5,7.69-13.28-4.14-18.25-62.05-18.25-73.57,0-.28,0-.47,.02-.56l-.74-.18,.7-.35c-3.82-7.57-8.73-11.67-13.47-15.64-6.31-5.28-12.27-10.26-16.3-22.92-1.44-4.5-2.54-8.31-3.42-11.37-4.78-16.53-5.02-16.76-25.9-23.85l-2.64-.9c-3.89-1.32-6.63-.25-9.05,.69-3.14,1.22-5.84,2.28-10.81-1.95-2.64-2.26-5.77-10.36-8.54-17.5-1.86-4.82-3.62-9.37-5.1-11.8-2.3-3.78-5.43-6.35-8.45-8.84-3.92-3.23-7.62-6.27-9.59-11.77-1.33-3.71-2-8.28-2-13.58,0-13.49,4.21-29.34,7.6-42.08,.78-2.92,1.5-5.65,2.11-8.12,10.25-41.37,28.87-80.73,46.88-118.8l1.86-3.92c42.77-90.46,90.59-158.83,146.19-209,37.33-33.69,73.69-55.43,111.15-66.47,44-12.96,97.67-3.65,133.55,23.17,18.62,13.92,40.81,38.63,40.81,77.3,0,10-1.55,20.44-4.61,31.02-26.68,92.24-117.66,89.19-200.84,79.1-24.86-3.02-45.07,1.65-58.44,13.49-11.31,10.01-17.53,25.15-17.53,42.63,0,32.14,22.1,73.14,63.06,85.84,46.96,14.56,86.99-16.51,125.7-46.55,41.26-32.03,83.93-65.14,136.54-46.65,30.34,10.67,70.05,50.4,73.85,83.72,.21,1.86,.32,3.71,.32,5.51,0,17.68-10.03,30.22-20.66,43.5-8.24,10.29-16.76,20.94-20.79,34.5h0Zm42.72-83.69c-3.86-33.87-44.13-74.22-74.9-85.04-53.43-18.78-96.44,14.6-138.04,46.89-40.15,31.16-78.08,60.6-124.25,46.29-40.23-12.47-61.94-52.75-61.94-84.31,0-17.01,6.04-31.73,17-41.44,13.02-11.53,32.79-16.06,57.19-13.1,83.83,10.17,175.53,13.2,202.56-80.24,3.1-10.72,4.67-21.31,4.67-31.46,0-39.34-22.54-64.44-41.45-78.58-36.25-27.1-90.49-36.52-134.95-23.42-37.7,11.11-74.26,32.97-111.77,66.82-55.76,50.32-103.7,118.85-146.56,209.51l-1.86,3.92c-18.04,38.14-36.7,77.57-46.99,119.1-.61,2.46-1.33,5.19-2.11,8.09-3.41,12.83-7.65,28.79-7.65,42.49,0,5.48,.71,10.23,2.1,14.12,2.12,5.91,6.17,9.24,10.08,12.46,2.92,2.4,5.94,4.88,8.1,8.44,1.4,2.31,3.14,6.79,4.97,11.55,2.97,7.68,6.04,15.62,8.99,18.14,5.69,4.85,9.11,3.51,12.42,2.22,2.38-.93,4.62-1.8,7.96-.66l2.64,.9q20.29,6.9,24.88,22.79c.89,3.07,1.99,6.89,3.43,11.41,4.17,13.1,10.59,18.46,16.79,23.65,4.77,3.99,9.28,7.77,12.93,14.87-.02,.19-.02,.4-.02,.63,0,8.2,4.09,70.32,19.37,75.09,4.12,1.28,8.59-1.51,13.29-8.3,5.89-8.51,6.57-14.96,6.57-19.07,0-2-.18-3.82-.34-5.57-.15-1.5-.28-2.92-.28-4.26,0-5,1.42-10.06,18.51-16.99,4.21-1.71,7.65-3.02,10.51-4.11,14.06-5.37,14.25-5.55,20.07-19.19,1.45-3.38,3.24-7.59,5.72-12.95,8.1-17.56,17.3-21.16,28.96-25.72,6.15-2.41,13.13-5.14,20.98-10.3,8.4-5.53,15.16-12.02,21.69-18.3,11.58-11.13,22.53-21.64,40.8-24.98,31.65-5.8,61.88,11.38,89.83,30.81,13.55,9.42,29.33,28.78,46.03,49.28,28.36,34.81,60.52,74.27,90.29,74.41,17,.08,30.05-4.29,38.78-12.97,9.51-9.47,14.14-23.85,14.14-43.98,0-29.19-9.85-65.06-18.53-96.72-6.84-24.92-12.74-46.44-12.74-60.2,0-3.11,.32-5.75,.94-7.83,3.95-13.27,12.37-23.79,20.51-33.97,10.8-13.5,21.01-26.25,21.01-44.49,0-1.86-.11-3.78-.33-5.69h0Z"/><path class="g" d="M82.64,526.06c0-7.74-1.9-16.28-3.57-23.82-.86-3.86-1.67-7.51-2.06-10.43-.74-5.5-1.05-10.85-1.35-16.02-.62-10.76-1.2-20.93-5.8-29-3.7-6.5-9.79-11.25-18.63-14.5-15.89-5.84-33.74-13.05-51.44-23.28v.79c17.63,10.15,35.39,17.32,51.21,23.14,8.68,3.19,14.66,7.83,18.28,14.19,4.51,7.93,5.09,18.02,5.71,28.7,.3,5.18,.61,10.54,1.35,16.07,.4,2.94,1.21,6.6,2.07,10.48,1.67,7.5,3.55,16,3.55,23.67,0,7.52-1.83,12.85-5.6,16.3-9.17,8.37-30.12,4.17-41.37,1.92l-1.78-.35c-12.97-2.56-24.01-6.67-33.42-12.46v.8c9.4,5.72,20.4,9.78,33.29,12.33l1.78,.35c11.37,2.28,32.53,6.51,41.96-2.09,3.92-3.58,5.82-9.07,5.82-16.8h0Z"/><path class="g" d="M-.21,349.9v1.57c3.01,2.83,5.77,5.25,8.27,7.08,34.12,25.09,65.62,36.22,96.29,34.03,11.93-.86,19.83,.61,24.14,4.48,2.75,2.46,4.08,5.98,4.08,10.74,0,6.62-2.52,14.78-5.2,23.42-2.43,7.84-4.94,15.95-5.77,23.6-.63,5.75-.93,11.52-.93,17.63,0,19.28,3.07,37.61,6.32,57,.55,3.26,1.09,6.53,1.63,9.82l.04,.25c1.11,6.8,2.36,14.52,2.36,22.03,0,14.2-4.71,23.29-14.4,27.78-20.24,9.39-44.6,6.77-66.1,4.45-2.9-.31-5.76-.62-8.59-.9-15.71-1.55-29.68-4.26-42.15-8.26v1.21c12.46,3.96,26.4,6.65,42.04,8.19,2.82,.28,5.68,.59,8.58,.9,21.64,2.33,46.18,4.98,66.7-4.55,10.13-4.7,15.06-14.13,15.06-28.82,0-7.6-1.26-15.36-2.38-22.21l-.04-.25c-.54-3.29-1.08-6.57-1.63-9.83-3.24-19.35-6.31-37.62-6.31-56.81,0-6.07,.3-11.79,.93-17.5,.82-7.55,3.32-15.6,5.73-23.4,2.7-8.72,5.25-16.96,5.25-23.75,0-5.11-1.46-8.9-4.46-11.59-4.55-4.08-12.72-5.64-24.99-4.76-30.39,2.17-61.64-8.88-95.54-33.81-2.67-1.96-5.66-4.63-8.94-7.74H-.21Z"/><path class="g" d="M172.32,357.31c5.45,7.71,8.1,18.28,8.1,32.29,0,16.46-3.69,34.87-6.94,51.12-1.92,9.58-3.73,18.62-4.52,26.01-.39,3.62-1.28,13.33-1.28,25.3,0,22.17,3.01,50.6,17.32,60.15,6.22,4.16,14.04,4.33,23.24,.51,4.32-1.8,6.67-6.43,8.94-10.92,1.8-3.55,3.65-7.22,6.42-9.25,3.28-2.41,7.88-3.84,12.33-5.22,5.92-1.83,12.05-3.73,15.67-8.04,4.49-5.34,6.58-11.2,6.58-18.45,0-5.03-1.02-10.17-2-15.14-.97-4.91-1.98-9.99-1.98-14.9,0-4.71,.93-8.81,2.85-12.53,4.66-9.05,10.94-12.85,17.01-16.53,7.92-4.8,15.39-9.33,18.89-24.26,7.32-31.25,14.96-39.82,33.42-60.51,2.38-2.67,4.94-5.53,7.69-8.67,6.54-7.45,14-12.95,21.22-18.27,6.44-4.74,13.1-9.65,19.18-15.97,7.48-7.77,10.81-15.08,14.02-22.16,4.29-9.43,8.34-18.34,22.22-26.42l2.18-1.26c17.58-10.16,33.85-20.44,33.85-26.76,0-1.01-.4-1.89-1.18-2.61-2.49-2.28-9.12-2.89-20.25-1.88-6.53,.59-12.36,5.31-18,9.87-6.08,4.92-11.83,9.56-18.18,9.28-7.61-.33-11.36-4.94-15.32-9.81-2.9-3.57-5.9-7.25-10.55-9.41-11.17-5.19-21.17-6.44-30.84-7.66-13.46-1.69-26.18-3.29-40.57-15.34-25.74-21.56-45.18-51.8-54.75-85.15-3.19-11.11-4.74-21.4-4.74-31.44,0-34.08,18.54-58.53,38.17-84.42,2.22-2.93,4.46-5.89,6.69-8.88h-1.99c-1.99,2.66-3.99,5.3-5.97,7.92-19.8,26.11-38.49,50.76-38.49,85.38,0,10.19,1.57,20.62,4.8,31.88,9.65,33.66,29.28,64.18,55.26,85.94,14.74,12.35,27.69,13.97,41.39,15.69,9.55,1.2,19.43,2.44,30.37,7.52,4.32,2,7.2,5.55,9.99,8.97,4.01,4.93,8.16,10.03,16.49,10.39,6.95,.3,13.2-4.75,19.25-9.63,5.46-4.41,11.1-8.97,17.14-9.52,13.1-1.19,17.58,.15,19.04,1.47,.45,.41,.66,.87,.66,1.43,0,6.27-23.16,19.66-33.05,25.38l-2.18,1.27c-14.31,8.34-18.47,17.47-22.86,27.13-3.16,6.95-6.43,14.14-13.72,21.71-5.99,6.22-12.59,11.08-18.98,15.79-7.29,5.37-14.82,10.92-21.47,18.5-2.75,3.13-5.31,6-7.69,8.66-18.65,20.91-26.37,29.56-33.78,61.2-3.34,14.28-10.54,18.65-18.16,23.27-6.26,3.8-12.73,7.72-17.6,17.16-2.04,3.95-3.03,8.29-3.03,13.26s1.02,10.22,2.01,15.21c.97,4.9,1.97,9.96,1.97,14.83,0,6.85-1.97,12.38-6.2,17.42-3.32,3.95-9.22,5.77-14.92,7.54-4.57,1.42-9.31,2.88-12.81,5.45-3.07,2.26-5.02,6.1-6.9,9.82-2.24,4.42-4.35,8.6-8.13,10.17-8.68,3.6-16,3.48-21.75-.36-13.73-9.16-16.61-37.05-16.61-58.83,0-11.89,.89-21.53,1.27-25.13,.78-7.31,2.58-16.32,4.49-25.86,3.27-16.32,6.97-34.81,6.97-51.43,0-14.35-2.74-25.21-8.39-33.21-14.08-19.91-35.32-14.2-55.86-8.68-21.94,5.9-44.63,12-59.43-12.53-1.77-2.94-2.68-6.87-2.68-11.68,0-14.67,8.02-35.33,15.78-55.31,6.75-17.4,13.13-33.84,13.39-44.53,.04-1.54,.05-3.07,.05-4.61v-.02c0-22.99-3.96-46.22-7.8-68.69-3.83-22.43-7.78-45.63-7.78-68.53,0-16.02,1.91-30.48,5.83-44.21C78.74,24.89,83.52,12.36,89-.01h-1.74c-5.39,12.22-10.1,24.6-13.68,37.16-3.96,13.87-5.89,28.48-5.89,44.65,0,23.04,3.97,46.3,7.81,68.8,3.82,22.41,7.77,45.57,7.78,68.42,.05,1.56-.02,3.06-.05,4.6-.24,10.41-6.58,26.72-13.28,43.99-7.81,20.12-15.88,40.92-15.88,55.89,0,5.18,.95,9.27,2.9,12.5,15.43,25.56,38.7,19.3,61.21,13.24,20.93-5.63,40.71-10.95,54.15,8.06h0Z"/><path class="g" d="M114.18,550.84c0-4.87-.6-10.52-2-18.89-3.56-21.23-5.22-42.31-5.22-66.33,0-6.03,.1-12.23,.31-18.95,.07-2.34,.11-4.37,.11-6.22,0-11.12-1.35-17.61-4.66-22.4-3.96-5.72-10.89-9.12-23.18-11.36-28.22-5.14-53.58-16.46-79.75-35.59v.84c26.11,19.01,51.44,30.28,79.63,35.41,12.1,2.21,18.9,5.52,22.74,11.08,3.22,4.66,4.54,11.04,4.54,22.01,0,1.84-.03,3.87-.11,6.2-.21,6.72-.31,12.93-.31,18.97,0,24.06,1.66,45.17,5.23,66.45,1.4,8.33,1.99,13.95,1.99,18.78,0,13.72-4.6,23.56-27.03,26.98-21.45,3.27-44.16,.37-59.43-2.64-9.86-1.94-18.9-4.63-27.25-8.02v.71c8.3,3.36,17.29,6.03,27.12,7.97,15.33,3.02,38.12,5.94,59.66,2.65,19.61-2.99,27.61-11.01,27.61-27.66h0Z"/><path class="g" d="M97.08,541.46h0c0-2.13-.21-4.45-.61-6.87-3.03-18.08-4.82-37.44-5.31-57.53-.12-4.69,0-9.19,.11-13.49,.08-2.89,.15-5.62,.15-8.27,0-8.18-.63-16.66-5.22-23.2-3.81-5.43-10.12-9.29-19.3-11.81-24.92-6.84-46.98-16.66-67.11-29.85v.81c20.09,13.1,42.09,22.88,66.93,29.69,9.02,2.48,15.21,6.25,18.92,11.54,4.48,6.39,5.1,14.74,5.1,22.81,0,2.65-.07,5.37-.15,8.26-.11,4.31-.23,8.82-.11,13.52,.49,20.13,2.28,39.52,5.32,57.63,1.75,10.4-.34,18.14-6.21,22.96-13.37,10.99-43.35,5.07-59.46,1.89-11.26-2.22-21.32-5.53-30.34-9.93v.77c8.99,4.34,19.01,7.62,30.21,9.82,16.22,3.2,46.41,9.15,60.03-2.03,4.69-3.85,7.06-9.48,7.06-16.73h0Z"/></g></g></g></g></g></svg>