<svg xmlns="http://www.w3.org/2000/svg" version="1.1" xmlns:xlink="http://www.w3.org/1999/xlink" xmlns:svgjs="http://svgjs.com/svgjs" width="1440" height="560" preserveAspectRatio="none" viewBox="0 0 1440 560"><g mask="url(&quot;#SvgjsMask1000&quot;)" fill="none"><path d="M -143.2290747772488,281 C -47.23,280 144.77,273 336.7709252227512,276 C 528.77,279 624.77,310.2 816.7709252227512,296 C 1008.77,281.8 1104.77,189.8 1296.7709252227512,205 C 1488.77,220.2 1748.13,387.8 1776.7709252227512,372 C 1805.42,356.2 1507.35,175.2 1440,126" stroke="rgba(59, 59, 59, 0.58)" stroke-width="2"></path><path d="M -501.86295051341597,173 C -405.86,215 -213.86,383 -21.862950513415953,383 C 170.14,383 266.14,162.8 458.13704948658403,173 C 650.14,183.2 746.14,418.2 938.137049486584,434 C 1130.14,449.8 1317.76,269 1418.1370494865841,252 C 1518.51,235 1435.63,329.6 1440,349" stroke="rgba(59, 59, 59, 0.58)" stroke-width="2"></path><path d="M -950.1179534008015,116 C -854.12,169 -662.12,370.4 -470.1179534008016,381 C -278.12,391.6 -182.12,188.4 9.882046599198418,169 C 201.88,149.6 297.88,281 489.8820465991984,284 C 681.88,287 779.86,170.6 969.8820465991985,184 C 1159.91,197.4 1345.98,317.6 1440,351" stroke="rgba(59, 59, 59, 0.58)" stroke-width="2"></path><path d="M -369.0921328647488,360 C -273.09,341.4 -81.09,247.6 110.90786713525117,267 C 302.91,286.4 398.91,469.4 590.9078671352512,457 C 782.91,444.6 878.91,215.8 1070.907867135251,205 C 1262.91,194.2 1477.09,403.4 1550.907867135251,403 C 1624.73,402.6 1462.18,243 1440,203" stroke="rgba(59, 59, 59, 0.58)" stroke-width="2"></path><path d="M -504.5587466040233,366 C -408.56,340.6 -216.56,234 -24.5587466040233,239 C 167.44,244 263.44,419.6 455.4412533959767,391 C 647.44,362.4 743.44,112 935.4412533959767,96 C 1127.44,80 1314.53,311.4 1415.4412533959767,311 C 1516.35,310.6 1435.09,137.4 1440,94" stroke="rgba(59, 59, 59, 0.58)" stroke-width="2"></path></g><defs><mask id="SvgjsMask1000"><rect width="1440" height="560" fill="#ffffff"></rect></mask></defs></svg>