<svg xmlns="http://www.w3.org/2000/svg" version="1.1" xmlns:xlink="http://www.w3.org/1999/xlink" xmlns:svgjs="http://svgjs.com/svgjs" width="1440" height="500" preserveAspectRatio="none" viewBox="0 0 1440 500"><g mask="url(&quot;#SvgjsMask1250&quot;)" fill="none"><g transform="translate(0, -5)"><use xlink:href="#SvgjsPath1251" x="146" y="250" fill="rgba(117, 117, 117, 1)"></use><use xlink:href="#SvgjsPath1252" x="174" y="250" fill="rgba(89, 89, 89, 1)"></use><use xlink:href="#SvgjsPath1253" x="202" y="250" fill="rgba(89, 89, 89, 1)"></use><use xlink:href="#SvgjsPath1252" x="230" y="250" fill="rgba(89, 89, 89, 1)"></use><use xlink:href="#SvgjsPath1254" x="258" y="250" fill="rgba(117, 117, 117, 1)"></use><use xlink:href="#SvgjsPath1255" x="286" y="250" fill="rgba(117, 117, 117, 1)"></use><use xlink:href="#SvgjsPath1252" x="314" y="250" fill="rgba(89, 89, 89, 1)"></use><use xlink:href="#SvgjsPath1254" x="342" y="250" fill="rgba(89, 89, 89, 1)"></use><use xlink:href="#SvgjsPath1256" x="370" y="250" fill="rgba(117, 117, 117, 1)"></use><use xlink:href="#SvgjsPath1252" x="398" y="250" fill="rgba(117, 117, 117, 1)"></use><use xlink:href="#SvgjsPath1254" x="426" y="250" fill="rgba(117, 117, 117, 1)"></use><use xlink:href="#SvgjsPath1254" x="454" y="250" fill="rgba(117, 117, 117, 1)"></use><use xlink:href="#SvgjsPath1254" x="482" y="250" fill="rgba(89, 89, 89, 1)"></use><use xlink:href="#SvgjsPath1253" x="510" y="250" fill="rgba(117, 117, 117, 1)"></use><use xlink:href="#SvgjsPath1255" x="538" y="250" fill="rgba(117, 117, 117, 1)"></use><use xlink:href="#SvgjsPath1255" x="566" y="250" fill="rgba(117, 117, 117, 1)"></use><use xlink:href="#SvgjsPath1255" x="594" y="250" fill="rgba(117, 117, 117, 1)"></use><use xlink:href="#SvgjsPath1253" x="622" y="250" fill="rgba(117, 117, 117, 1)"></use><use xlink:href="#SvgjsPath1256" x="650" y="250" fill="rgba(89, 89, 89, 1)"></use><use xlink:href="#SvgjsPath1251" x="678" y="250" fill="rgba(89, 89, 89, 1)"></use><use xlink:href="#SvgjsPath1255" x="706" y="250" fill="rgba(89, 89, 89, 1)"></use><use xlink:href="#SvgjsPath1251" x="734" y="250" fill="rgba(89, 89, 89, 1)"></use><use xlink:href="#SvgjsPath1256" x="762" y="250" fill="rgba(117, 117, 117, 1)"></use><use xlink:href="#SvgjsPath1256" x="790" y="250" fill="rgba(89, 89, 89, 1)"></use><use xlink:href="#SvgjsPath1251" x="818" y="250" fill="rgba(117, 117, 117, 1)"></use><use xlink:href="#SvgjsPath1254" x="846" y="250" fill="rgba(89, 89, 89, 1)"></use><use xlink:href="#SvgjsPath1252" x="874" y="250" fill="rgba(89, 89, 89, 1)"></use><use xlink:href="#SvgjsPath1257" x="902" y="250" fill="rgba(89, 89, 89, 1)"></use><use xlink:href="#SvgjsPath1254" x="930" y="250" fill="rgba(89, 89, 89, 1)"></use><use xlink:href="#SvgjsPath1256" x="958" y="250" fill="rgba(89, 89, 89, 1)"></use><use xlink:href="#SvgjsPath1255" x="986" y="250" fill="rgba(89, 89, 89, 1)"></use><use xlink:href="#SvgjsPath1252" x="1014" y="250" fill="rgba(117, 117, 117, 1)"></use><use xlink:href="#SvgjsPath1252" x="1042" y="250" fill="rgba(89, 89, 89, 1)"></use><use xlink:href="#SvgjsPath1253" x="1070" y="250" fill="rgba(89, 89, 89, 1)"></use><use xlink:href="#SvgjsPath1252" x="1098" y="250" fill="rgba(89, 89, 89, 1)"></use><use xlink:href="#SvgjsPath1256" x="1126" y="250" fill="rgba(117, 117, 117, 1)"></use><use xlink:href="#SvgjsPath1256" x="1154" y="250" fill="rgba(89, 89, 89, 1)"></use><use xlink:href="#SvgjsPath1254" x="1182" y="250" fill="rgba(89, 89, 89, 1)"></use><use xlink:href="#SvgjsPath1251" x="1210" y="250" fill="rgba(89, 89, 89, 1)"></use><use xlink:href="#SvgjsPath1257" x="1238" y="250" fill="rgba(89, 89, 89, 1)"></use><use xlink:href="#SvgjsPath1253" x="1266" y="250" fill="rgba(117, 117, 117, 1)"></use><use xlink:href="#SvgjsPath1256" x="1294" y="250" fill="rgba(89, 89, 89, 1)"></use></g></g><defs><mask id="SvgjsMask1250"><rect width="1440" height="500" fill="#ffffff"></rect></mask><path d="M-11.2 0 a11.2 11.2 0 1 0 22.4 0 a11.2 11.2 0 1 0 -22.4 0zM-11.2 28 a11.2 11.2 0 1 0 22.4 0 a11.2 11.2 0 1 0 -22.4 0zM-11.2 -28 a11.2 11.2 0 1 0 22.4 0 a11.2 11.2 0 1 0 -22.4 0z" id="SvgjsPath1251"></path><path d="M-11.2 0 a11.2 11.2 0 1 0 22.4 0 a11.2 11.2 0 1 0 -22.4 0zM-11.2 28 a11.2 11.2 0 1 0 22.4 0 a11.2 11.2 0 1 0 -22.4 0zM-11.2 -28 a11.2 11.2 0 1 0 22.4 0 a11.2 11.2 0 1 0 -22.4 0zM-11.2 56 a11.2 11.2 0 1 0 22.4 0 a11.2 11.2 0 1 0 -22.4 0zM-11.2 -56 a11.2 11.2 0 1 0 22.4 0 a11.2 11.2 0 1 0 -22.4 0z" id="SvgjsPath1252"></path><path d="M-11.2 0 a11.2 11.2 0 1 0 22.4 0 a11.2 11.2 0 1 0 -22.4 0zM-11.2 28 a11.2 11.2 0 1 0 22.4 0 a11.2 11.2 0 1 0 -22.4 0zM-11.2 -28 a11.2 11.2 0 1 0 22.4 0 a11.2 11.2 0 1 0 -22.4 0zM-11.2 56 a11.2 11.2 0 1 0 22.4 0 a11.2 11.2 0 1 0 -22.4 0zM-11.2 -56 a11.2 11.2 0 1 0 22.4 0 a11.2 11.2 0 1 0 -22.4 0zM-11.2 84 a11.2 11.2 0 1 0 22.4 0 a11.2 11.2 0 1 0 -22.4 0zM-11.2 -84 a11.2 11.2 0 1 0 22.4 0 a11.2 11.2 0 1 0 -22.4 0z" id="SvgjsPath1254"></path><path d="M-11.2 0 a11.2 11.2 0 1 0 22.4 0 a11.2 11.2 0 1 0 -22.4 0zM-11.2 28 a11.2 11.2 0 1 0 22.4 0 a11.2 11.2 0 1 0 -22.4 0zM-11.2 -28 a11.2 11.2 0 1 0 22.4 0 a11.2 11.2 0 1 0 -22.4 0zM-11.2 56 a11.2 11.2 0 1 0 22.4 0 a11.2 11.2 0 1 0 -22.4 0zM-11.2 -56 a11.2 11.2 0 1 0 22.4 0 a11.2 11.2 0 1 0 -22.4 0zM-11.2 84 a11.2 11.2 0 1 0 22.4 0 a11.2 11.2 0 1 0 -22.4 0zM-11.2 -84 a11.2 11.2 0 1 0 22.4 0 a11.2 11.2 0 1 0 -22.4 0zM-11.2 112 a11.2 11.2 0 1 0 22.4 0 a11.2 11.2 0 1 0 -22.4 0zM-11.2 -112 a11.2 11.2 0 1 0 22.4 0 a11.2 11.2 0 1 0 -22.4 0z" id="SvgjsPath1255"></path><path d="M-11.2 0 a11.2 11.2 0 1 0 22.4 0 a11.2 11.2 0 1 0 -22.4 0zM-11.2 28 a11.2 11.2 0 1 0 22.4 0 a11.2 11.2 0 1 0 -22.4 0zM-11.2 -28 a11.2 11.2 0 1 0 22.4 0 a11.2 11.2 0 1 0 -22.4 0zM-11.2 56 a11.2 11.2 0 1 0 22.4 0 a11.2 11.2 0 1 0 -22.4 0zM-11.2 -56 a11.2 11.2 0 1 0 22.4 0 a11.2 11.2 0 1 0 -22.4 0zM-11.2 84 a11.2 11.2 0 1 0 22.4 0 a11.2 11.2 0 1 0 -22.4 0zM-11.2 -84 a11.2 11.2 0 1 0 22.4 0 a11.2 11.2 0 1 0 -22.4 0zM-11.2 112 a11.2 11.2 0 1 0 22.4 0 a11.2 11.2 0 1 0 -22.4 0zM-11.2 -112 a11.2 11.2 0 1 0 22.4 0 a11.2 11.2 0 1 0 -22.4 0zM-11.2 140 a11.2 11.2 0 1 0 22.4 0 a11.2 11.2 0 1 0 -22.4 0zM-11.2 -140 a11.2 11.2 0 1 0 22.4 0 a11.2 11.2 0 1 0 -22.4 0z" id="SvgjsPath1253"></path><path d="M-11.2 0 a11.2 11.2 0 1 0 22.4 0 a11.2 11.2 0 1 0 -22.4 0zM-11.2 28 a11.2 11.2 0 1 0 22.4 0 a11.2 11.2 0 1 0 -22.4 0zM-11.2 -28 a11.2 11.2 0 1 0 22.4 0 a11.2 11.2 0 1 0 -22.4 0zM-11.2 56 a11.2 11.2 0 1 0 22.4 0 a11.2 11.2 0 1 0 -22.4 0zM-11.2 -56 a11.2 11.2 0 1 0 22.4 0 a11.2 11.2 0 1 0 -22.4 0zM-11.2 84 a11.2 11.2 0 1 0 22.4 0 a11.2 11.2 0 1 0 -22.4 0zM-11.2 -84 a11.2 11.2 0 1 0 22.4 0 a11.2 11.2 0 1 0 -22.4 0zM-11.2 112 a11.2 11.2 0 1 0 22.4 0 a11.2 11.2 0 1 0 -22.4 0zM-11.2 -112 a11.2 11.2 0 1 0 22.4 0 a11.2 11.2 0 1 0 -22.4 0zM-11.2 140 a11.2 11.2 0 1 0 22.4 0 a11.2 11.2 0 1 0 -22.4 0zM-11.2 -140 a11.2 11.2 0 1 0 22.4 0 a11.2 11.2 0 1 0 -22.4 0zM-11.2 168 a11.2 11.2 0 1 0 22.4 0 a11.2 11.2 0 1 0 -22.4 0zM-11.2 -168 a11.2 11.2 0 1 0 22.4 0 a11.2 11.2 0 1 0 -22.4 0z" id="SvgjsPath1256"></path><path d="M-11.2 0 a11.2 11.2 0 1 0 22.4 0 a11.2 11.2 0 1 0 -22.4 0zM-11.2 28 a11.2 11.2 0 1 0 22.4 0 a11.2 11.2 0 1 0 -22.4 0zM-11.2 -28 a11.2 11.2 0 1 0 22.4 0 a11.2 11.2 0 1 0 -22.4 0zM-11.2 56 a11.2 11.2 0 1 0 22.4 0 a11.2 11.2 0 1 0 -22.4 0zM-11.2 -56 a11.2 11.2 0 1 0 22.4 0 a11.2 11.2 0 1 0 -22.4 0zM-11.2 84 a11.2 11.2 0 1 0 22.4 0 a11.2 11.2 0 1 0 -22.4 0zM-11.2 -84 a11.2 11.2 0 1 0 22.4 0 a11.2 11.2 0 1 0 -22.4 0zM-11.2 112 a11.2 11.2 0 1 0 22.4 0 a11.2 11.2 0 1 0 -22.4 0zM-11.2 -112 a11.2 11.2 0 1 0 22.4 0 a11.2 11.2 0 1 0 -22.4 0zM-11.2 140 a11.2 11.2 0 1 0 22.4 0 a11.2 11.2 0 1 0 -22.4 0zM-11.2 -140 a11.2 11.2 0 1 0 22.4 0 a11.2 11.2 0 1 0 -22.4 0zM-11.2 168 a11.2 11.2 0 1 0 22.4 0 a11.2 11.2 0 1 0 -22.4 0zM-11.2 -168 a11.2 11.2 0 1 0 22.4 0 a11.2 11.2 0 1 0 -22.4 0zM-11.2 196 a11.2 11.2 0 1 0 22.4 0 a11.2 11.2 0 1 0 -22.4 0zM-11.2 -196 a11.2 11.2 0 1 0 22.4 0 a11.2 11.2 0 1 0 -22.4 0z" id="SvgjsPath1257"></path></defs></svg>